<svg xmlns="http://www.w3.org/2000/svg" width="640" height="360" viewBox="0 0 640 360" role="img" aria-label="Microlitres per pulse versus pulse duration">
<rect width="100%" height="100%" fill="#fbfbfb"/>
<text x="320" y="22" text-anchor="middle" font-family="ui-sans-serif, system-ui, sans-serif" font-size="14" font-weight="600" fill="#1a1a1a">Delivered volume per pulse</text>
<line x1="64" y1="36" x2="64" y2="308" stroke="#444" stroke-width="1.2"/>
<line x1="64" y1="308" x2="612" y2="308" stroke="#444" stroke-width="1.2"/>
<line x1="64" y1="308.0" x2="612" y2="308.0" stroke="#e6e6e6" stroke-width="1"/>
<text x="56" y="312.0" text-anchor="end" font-family="ui-sans-serif, system-ui, sans-serif" font-size="11" fill="#555">0</text>
<line x1="64" y1="262.7" x2="612" y2="262.7" stroke="#e6e6e6" stroke-width="1"/>
<text x="56" y="266.7" text-anchor="end" font-family="ui-sans-serif, system-ui, sans-serif" font-size="11" fill="#555">2</text>
<line x1="64" y1="217.3" x2="612" y2="217.3" stroke="#e6e6e6" stroke-width="1"/>
<text x="56" y="221.3" text-anchor="end" font-family="ui-sans-serif, system-ui, sans-serif" font-size="11" fill="#555">4</text>
<line x1="64" y1="172.0" x2="612" y2="172.0" stroke="#e6e6e6" stroke-width="1"/>
<text x="56" y="176.0" text-anchor="end" font-family="ui-sans-serif, system-ui, sans-serif" font-size="11" fill="#555">6</text>
<line x1="64" y1="126.7" x2="612" y2="126.7" stroke="#e6e6e6" stroke-width="1"/>
<text x="56" y="130.7" text-anchor="end" font-family="ui-sans-serif, system-ui, sans-serif" font-size="11" fill="#555">8</text>
<line x1="64" y1="81.3" x2="612" y2="81.3" stroke="#e6e6e6" stroke-width="1"/>
<text x="56" y="85.3" text-anchor="end" font-family="ui-sans-serif, system-ui, sans-serif" font-size="11" fill="#555">10</text>
<line x1="64" y1="36.0" x2="612" y2="36.0" stroke="#e6e6e6" stroke-width="1"/>
<text x="56" y="40.0" text-anchor="end" font-family="ui-sans-serif, system-ui, sans-serif" font-size="11" fill="#555">12</text>
<line x1="64.0" y1="287.1" x2="612.0" y2="65.0" stroke="#9aa3b2" stroke-width="1.8" stroke-dasharray="5 4"/>
<line x1="83.6" y1="308" x2="83.6" y2="313" stroke="#444" stroke-width="1"/>
<text x="83.6" y="328" text-anchor="middle" font-family="ui-sans-serif, system-ui, sans-serif" font-size="11" fill="#555">50</text>
<line x1="181.4" y1="308" x2="181.4" y2="313" stroke="#444" stroke-width="1"/>
<text x="181.4" y="328" text-anchor="middle" font-family="ui-sans-serif, system-ui, sans-serif" font-size="11" fill="#555">100</text>
<line x1="279.3" y1="308" x2="279.3" y2="313" stroke="#444" stroke-width="1"/>
<text x="279.3" y="328" text-anchor="middle" font-family="ui-sans-serif, system-ui, sans-serif" font-size="11" fill="#555">150</text>
<line x1="377.1" y1="308" x2="377.1" y2="313" stroke="#444" stroke-width="1"/>
<text x="377.1" y="328" text-anchor="middle" font-family="ui-sans-serif, system-ui, sans-serif" font-size="11" fill="#555">200</text>
<line x1="475.0" y1="308" x2="475.0" y2="313" stroke="#444" stroke-width="1"/>
<text x="475.0" y="328" text-anchor="middle" font-family="ui-sans-serif, system-ui, sans-serif" font-size="11" fill="#555">250</text>
<line x1="572.9" y1="308" x2="572.9" y2="313" stroke="#444" stroke-width="1"/>
<text x="572.9" y="328" text-anchor="middle" font-family="ui-sans-serif, system-ui, sans-serif" font-size="11" fill="#555">300</text>
<text x="320" y="352" text-anchor="middle" font-family="ui-sans-serif, system-ui, sans-serif" font-size="12" fill="#333">Pulse duration (ms)</text>
<text x="16" y="172" text-anchor="middle" transform="rotate(-90 16 172)" font-family="ui-sans-serif, system-ui, sans-serif" font-size="12" fill="#333">Volume (µl / pulse)</text>
<polyline fill="none" stroke="#2f6fed" stroke-width="2.2" points="83.6,280.8 181.4,235.5 279.3,203.7 377.1,158.4 572.9,81.3"/>
<circle cx="83.6" cy="280.8" r="4" fill="#2f6fed"/>
<text x="83.6" y="270.8" text-anchor="middle" font-family="ui-sans-serif, system-ui, sans-serif" font-size="10" fill="#1a1a1a">1.2</text>
<circle cx="181.4" cy="235.5" r="4" fill="#2f6fed"/>
<text x="181.4" y="225.5" text-anchor="middle" font-family="ui-sans-serif, system-ui, sans-serif" font-size="10" fill="#1a1a1a">3.2</text>
<circle cx="279.3" cy="203.7" r="4" fill="#2f6fed"/>
<text x="279.3" y="193.7" text-anchor="middle" font-family="ui-sans-serif, system-ui, sans-serif" font-size="10" fill="#1a1a1a">4.6</text>
<circle cx="377.1" cy="158.4" r="4" fill="#2f6fed"/>
<text x="377.1" y="148.4" text-anchor="middle" font-family="ui-sans-serif, system-ui, sans-serif" font-size="10" fill="#1a1a1a">6.6</text>
<circle cx="572.9" cy="81.3" r="4" fill="#2f6fed"/>
<text x="572.9" y="71.3" text-anchor="middle" font-family="ui-sans-serif, system-ui, sans-serif" font-size="10" fill="#1a1a1a">10.0</text>
<circle cx="236.2" cy="217.3" r="3.5" fill="none" stroke="#1a7f4b" stroke-width="1.6"/>
<circle cx="347.8" cy="172.0" r="3.5" fill="none" stroke="#1a7f4b" stroke-width="1.6"/>
<circle cx="459.3" cy="126.7" r="3.5" fill="none" stroke="#1a7f4b" stroke-width="1.6"/>
<text x="604" y="50" text-anchor="end" font-family="ui-sans-serif, system-ui, sans-serif" font-size="11" fill="#666">dashed = fit · green rings = 4 / 6 / 8 µl</text>
</svg>
