ISO-10303-21;
HEADER;
FILE_DESCRIPTION(('Open CASCADE Model'),'2;1');
FILE_NAME('Open CASCADE Shape Model','2026-09-05T00:15:59',('Author'),(
    'Open CASCADE'),'Open CASCADE STEP processor 7.7','Open CASCADE 7.7'
  ,'Unknown');
FILE_SCHEMA(('AUTOMOTIVE_DESIGN { 1 0 10303 214 1 1 1 1 }'));
ENDSEC;
DATA;
#1 = APPLICATION_PROTOCOL_DEFINITION('international standard',
  'automotive_design',2000,#2);
#2 = APPLICATION_CONTEXT(
  'core data for automotive mechanical design processes');
#3 = SHAPE_DEFINITION_REPRESENTATION(#4,#10);
#4 = PRODUCT_DEFINITION_SHAPE('','',#5);
#5 = PRODUCT_DEFINITION('design','',#6,#9);
#6 = PRODUCT_DEFINITION_FORMATION('','',#7);
#7 = PRODUCT('Open CASCADE STEP translator 7.7 1',
  'Open CASCADE STEP translator 7.7 1','',(#8));
#8 = PRODUCT_CONTEXT('',#2,'mechanical');
#9 = PRODUCT_DEFINITION_CONTEXT('part definition',#2,'design');
#10 = ADVANCED_BREP_SHAPE_REPRESENTATION('',(#11,#15),#1671);
#11 = AXIS2_PLACEMENT_3D('',#12,#13,#14);
#12 = CARTESIAN_POINT('',(0.,0.,0.));
#13 = DIRECTION('',(0.,0.,1.));
#14 = DIRECTION('',(1.,0.,-0.));
#15 = MANIFOLD_SOLID_BREP('',#16);
#16 = CLOSED_SHELL('',(#17,#253,#327,#415,#609,#691,#738,#819,#969,#1029
    ,#1179,#1323,#1373,#1493,#1520,#1574,#1601,#1628,#1635,#1642));
#17 = ADVANCED_FACE('',(#18),#32,.F.);
#18 = FACE_BOUND('',#19,.F.);
#19 = EDGE_LOOP('',(#20,#55,#84,#112,#141,#169,#198,#226));
#20 = ORIENTED_EDGE('',*,*,#21,.F.);
#21 = EDGE_CURVE('',#22,#24,#26,.T.);
#22 = VERTEX_POINT('',#23);
#23 = CARTESIAN_POINT('',(-19.,-1.5,-0.75));
#24 = VERTEX_POINT('',#25);
#25 = CARTESIAN_POINT('',(-19.,-1.5,0.75));
#26 = SURFACE_CURVE('',#27,(#31,#43),.PCURVE_S1.);
#27 = LINE('',#28,#29);
#28 = CARTESIAN_POINT('',(-19.,-1.5,-0.75));
#29 = VECTOR('',#30,1.);
#30 = DIRECTION('',(0.,0.,1.));
#31 = PCURVE('',#32,#37);
#32 = PLANE('',#33);
#33 = AXIS2_PLACEMENT_3D('',#34,#35,#36);
#34 = CARTESIAN_POINT('',(-19.,-1.5,-0.75));
#35 = DIRECTION('',(1.,0.,-0.));
#36 = DIRECTION('',(0.,0.,1.));
#37 = DEFINITIONAL_REPRESENTATION('',(#38),#42);
#38 = LINE('',#39,#40);
#39 = CARTESIAN_POINT('',(0.,0.));
#40 = VECTOR('',#41,1.);
#41 = DIRECTION('',(1.,0.));
#42 = ( GEOMETRIC_REPRESENTATION_CONTEXT(2) 
PARAMETRIC_REPRESENTATION_CONTEXT() REPRESENTATION_CONTEXT('2D SPACE',''
  ) );
#43 = PCURVE('',#44,#49);
#44 = PLANE('',#45);
#45 = AXIS2_PLACEMENT_3D('',#46,#47,#48);
#46 = CARTESIAN_POINT('',(-19.,-1.5,-0.75));
#47 = DIRECTION('',(-0.,1.,0.));
#48 = DIRECTION('',(0.,0.,1.));
#49 = DEFINITIONAL_REPRESENTATION('',(#50),#54);
#50 = LINE('',#51,#52);
#51 = CARTESIAN_POINT('',(0.,0.));
#52 = VECTOR('',#53,1.);
#53 = DIRECTION('',(1.,0.));
#54 = ( GEOMETRIC_REPRESENTATION_CONTEXT(2) 
PARAMETRIC_REPRESENTATION_CONTEXT() REPRESENTATION_CONTEXT('2D SPACE',''
  ) );
#55 = ORIENTED_EDGE('',*,*,#56,.T.);
#56 = EDGE_CURVE('',#22,#57,#59,.T.);
#57 = VERTEX_POINT('',#58);
#58 = CARTESIAN_POINT('',(-19.,-0.75,-1.5));
#59 = SURFACE_CURVE('',#60,(#65,#72),.PCURVE_S1.);
#60 = CIRCLE('',#61,0.75);
#61 = AXIS2_PLACEMENT_3D('',#62,#63,#64);
#62 = CARTESIAN_POINT('',(-19.,-0.75,-0.75));
#63 = DIRECTION('',(1.,0.,0.));
#64 = DIRECTION('',(-0.,0.,1.));
#65 = PCURVE('',#32,#66);
#66 = DEFINITIONAL_REPRESENTATION('',(#67),#71);
#67 = CIRCLE('',#68,0.75);
#68 = AXIS2_PLACEMENT_2D('',#69,#70);
#69 = CARTESIAN_POINT('',(0.,-0.75));
#70 = DIRECTION('',(1.,0.));
#71 = ( GEOMETRIC_REPRESENTATION_CONTEXT(2) 
PARAMETRIC_REPRESENTATION_CONTEXT() REPRESENTATION_CONTEXT('2D SPACE',''
  ) );
#72 = PCURVE('',#73,#78);
#73 = CYLINDRICAL_SURFACE('',#74,0.75);
#74 = AXIS2_PLACEMENT_3D('',#75,#76,#77);
#75 = CARTESIAN_POINT('',(-19.,-0.75,-0.75));
#76 = DIRECTION('',(1.,0.,0.));
#77 = DIRECTION('',(-0.,0.,1.));
#78 = DEFINITIONAL_REPRESENTATION('',(#79),#83);
#79 = LINE('',#80,#81);
#80 = CARTESIAN_POINT('',(0.,0.));
#81 = VECTOR('',#82,1.);
#82 = DIRECTION('',(1.,0.));
#83 = ( GEOMETRIC_REPRESENTATION_CONTEXT(2) 
PARAMETRIC_REPRESENTATION_CONTEXT() REPRESENTATION_CONTEXT('2D SPACE',''
  ) );
#84 = ORIENTED_EDGE('',*,*,#85,.T.);
#85 = EDGE_CURVE('',#57,#86,#88,.T.);
#86 = VERTEX_POINT('',#87);
#87 = CARTESIAN_POINT('',(-19.,0.75,-1.5));
#88 = SURFACE_CURVE('',#89,(#93,#100),.PCURVE_S1.);
#89 = LINE('',#90,#91);
#90 = CARTESIAN_POINT('',(-19.,-0.75,-1.5));
#91 = VECTOR('',#92,1.);
#92 = DIRECTION('',(-0.,1.,0.));
#93 = PCURVE('',#32,#94);
#94 = DEFINITIONAL_REPRESENTATION('',(#95),#99);
#95 = LINE('',#96,#97);
#96 = CARTESIAN_POINT('',(-0.75,-0.75));
#97 = VECTOR('',#98,1.);
#98 = DIRECTION('',(0.,-1.));
#99 = ( GEOMETRIC_REPRESENTATION_CONTEXT(2) 
PARAMETRIC_REPRESENTATION_CONTEXT() REPRESENTATION_CONTEXT('2D SPACE',''
  ) );
#100 = PCURVE('',#101,#106);
#101 = PLANE('',#102);
#102 = AXIS2_PLACEMENT_3D('',#103,#104,#105);
#103 = CARTESIAN_POINT('',(-19.,-0.75,-1.5));
#104 = DIRECTION('',(0.,0.,1.));
#105 = DIRECTION('',(1.,0.,-0.));
#106 = DEFINITIONAL_REPRESENTATION('',(#107),#111);
#107 = LINE('',#108,#109);
#108 = CARTESIAN_POINT('',(0.,0.));
#109 = VECTOR('',#110,1.);
#110 = DIRECTION('',(0.,1.));
#111 = ( GEOMETRIC_REPRESENTATION_CONTEXT(2) 
PARAMETRIC_REPRESENTATION_CONTEXT() REPRESENTATION_CONTEXT('2D SPACE',''
  ) );
#112 = ORIENTED_EDGE('',*,*,#113,.T.);
#113 = EDGE_CURVE('',#86,#114,#116,.T.);
#114 = VERTEX_POINT('',#115);
#115 = CARTESIAN_POINT('',(-19.,1.5,-0.75));
#116 = SURFACE_CURVE('',#117,(#122,#129),.PCURVE_S1.);
#117 = CIRCLE('',#118,0.75);
#118 = AXIS2_PLACEMENT_3D('',#119,#120,#121);
#119 = CARTESIAN_POINT('',(-19.,0.75,-0.75));
#120 = DIRECTION('',(1.,0.,0.));
#121 = DIRECTION('',(-0.,0.,1.));
#122 = PCURVE('',#32,#123);
#123 = DEFINITIONAL_REPRESENTATION('',(#124),#128);
#124 = CIRCLE('',#125,0.75);
#125 = AXIS2_PLACEMENT_2D('',#126,#127);
#126 = CARTESIAN_POINT('',(0.,-2.25));
#127 = DIRECTION('',(1.,0.));
#128 = ( GEOMETRIC_REPRESENTATION_CONTEXT(2) 
PARAMETRIC_REPRESENTATION_CONTEXT() REPRESENTATION_CONTEXT('2D SPACE',''
  ) );
#129 = PCURVE('',#130,#135);
#130 = CYLINDRICAL_SURFACE('',#131,0.75);
#131 = AXIS2_PLACEMENT_3D('',#132,#133,#134);
#132 = CARTESIAN_POINT('',(-19.,0.75,-0.75));
#133 = DIRECTION('',(1.,0.,0.));
#134 = DIRECTION('',(-0.,0.,1.));
#135 = DEFINITIONAL_REPRESENTATION('',(#136),#140);
#136 = LINE('',#137,#138);
#137 = CARTESIAN_POINT('',(0.,0.));
#138 = VECTOR('',#139,1.);
#139 = DIRECTION('',(1.,0.));
#140 = ( GEOMETRIC_REPRESENTATION_CONTEXT(2) 
PARAMETRIC_REPRESENTATION_CONTEXT() REPRESENTATION_CONTEXT('2D SPACE',''
  ) );
#141 = ORIENTED_EDGE('',*,*,#142,.T.);
#142 = EDGE_CURVE('',#114,#143,#145,.T.);
#143 = VERTEX_POINT('',#144);
#144 = CARTESIAN_POINT('',(-19.,1.5,0.75));
#145 = SURFACE_CURVE('',#146,(#150,#157),.PCURVE_S1.);
#146 = LINE('',#147,#148);
#147 = CARTESIAN_POINT('',(-19.,1.5,-0.75));
#148 = VECTOR('',#149,1.);
#149 = DIRECTION('',(0.,0.,1.));
#150 = PCURVE('',#32,#151);
#151 = DEFINITIONAL_REPRESENTATION('',(#152),#156);
#152 = LINE('',#153,#154);
#153 = CARTESIAN_POINT('',(0.,-3.));
#154 = VECTOR('',#155,1.);
#155 = DIRECTION('',(1.,0.));
#156 = ( GEOMETRIC_REPRESENTATION_CONTEXT(2) 
PARAMETRIC_REPRESENTATION_CONTEXT() REPRESENTATION_CONTEXT('2D SPACE',''
  ) );
#157 = PCURVE('',#158,#163);
#158 = PLANE('',#159);
#159 = AXIS2_PLACEMENT_3D('',#160,#161,#162);
#160 = CARTESIAN_POINT('',(-19.,1.5,-0.75));
#161 = DIRECTION('',(-0.,1.,0.));
#162 = DIRECTION('',(0.,0.,1.));
#163 = DEFINITIONAL_REPRESENTATION('',(#164),#168);
#164 = LINE('',#165,#166);
#165 = CARTESIAN_POINT('',(0.,0.));
#166 = VECTOR('',#167,1.);
#167 = DIRECTION('',(1.,0.));
#168 = ( GEOMETRIC_REPRESENTATION_CONTEXT(2) 
PARAMETRIC_REPRESENTATION_CONTEXT() REPRESENTATION_CONTEXT('2D SPACE',''
  ) );
#169 = ORIENTED_EDGE('',*,*,#170,.T.);
#170 = EDGE_CURVE('',#143,#171,#173,.T.);
#171 = VERTEX_POINT('',#172);
#172 = CARTESIAN_POINT('',(-19.,0.75,1.5));
#173 = SURFACE_CURVE('',#174,(#179,#186),.PCURVE_S1.);
#174 = CIRCLE('',#175,0.75);
#175 = AXIS2_PLACEMENT_3D('',#176,#177,#178);
#176 = CARTESIAN_POINT('',(-19.,0.75,0.75));
#177 = DIRECTION('',(1.,0.,0.));
#178 = DIRECTION('',(-0.,0.,1.));
#179 = PCURVE('',#32,#180);
#180 = DEFINITIONAL_REPRESENTATION('',(#181),#185);
#181 = CIRCLE('',#182,0.75);
#182 = AXIS2_PLACEMENT_2D('',#183,#184);
#183 = CARTESIAN_POINT('',(1.5,-2.25));
#184 = DIRECTION('',(1.,0.));
#185 = ( GEOMETRIC_REPRESENTATION_CONTEXT(2) 
PARAMETRIC_REPRESENTATION_CONTEXT() REPRESENTATION_CONTEXT('2D SPACE',''
  ) );
#186 = PCURVE('',#187,#192);
#187 = CYLINDRICAL_SURFACE('',#188,0.75);
#188 = AXIS2_PLACEMENT_3D('',#189,#190,#191);
#189 = CARTESIAN_POINT('',(-19.,0.75,0.75));
#190 = DIRECTION('',(1.,0.,0.));
#191 = DIRECTION('',(-0.,0.,1.));
#192 = DEFINITIONAL_REPRESENTATION('',(#193),#197);
#193 = LINE('',#194,#195);
#194 = CARTESIAN_POINT('',(0.,0.));
#195 = VECTOR('',#196,1.);
#196 = DIRECTION('',(1.,0.));
#197 = ( GEOMETRIC_REPRESENTATION_CONTEXT(2) 
PARAMETRIC_REPRESENTATION_CONTEXT() REPRESENTATION_CONTEXT('2D SPACE',''
  ) );
#198 = ORIENTED_EDGE('',*,*,#199,.F.);
#199 = EDGE_CURVE('',#200,#171,#202,.T.);
#200 = VERTEX_POINT('',#201);
#201 = CARTESIAN_POINT('',(-19.,-0.75,1.5));
#202 = SURFACE_CURVE('',#203,(#207,#214),.PCURVE_S1.);
#203 = LINE('',#204,#205);
#204 = CARTESIAN_POINT('',(-19.,-0.75,1.5));
#205 = VECTOR('',#206,1.);
#206 = DIRECTION('',(-0.,1.,0.));
#207 = PCURVE('',#32,#208);
#208 = DEFINITIONAL_REPRESENTATION('',(#209),#213);
#209 = LINE('',#210,#211);
#210 = CARTESIAN_POINT('',(2.25,-0.75));
#211 = VECTOR('',#212,1.);
#212 = DIRECTION('',(0.,-1.));
#213 = ( GEOMETRIC_REPRESENTATION_CONTEXT(2) 
PARAMETRIC_REPRESENTATION_CONTEXT() REPRESENTATION_CONTEXT('2D SPACE',''
  ) );
#214 = PCURVE('',#215,#220);
#215 = PLANE('',#216);
#216 = AXIS2_PLACEMENT_3D('',#217,#218,#219);
#217 = CARTESIAN_POINT('',(0.,0.,1.5));
#218 = DIRECTION('',(0.,0.,1.));
#219 = DIRECTION('',(1.,0.,-0.));
#220 = DEFINITIONAL_REPRESENTATION('',(#221),#225);
#221 = LINE('',#222,#223);
#222 = CARTESIAN_POINT('',(-19.,-0.75));
#223 = VECTOR('',#224,1.);
#224 = DIRECTION('',(0.,1.));
#225 = ( GEOMETRIC_REPRESENTATION_CONTEXT(2) 
PARAMETRIC_REPRESENTATION_CONTEXT() REPRESENTATION_CONTEXT('2D SPACE',''
  ) );
#226 = ORIENTED_EDGE('',*,*,#227,.T.);
#227 = EDGE_CURVE('',#200,#24,#228,.T.);
#228 = SURFACE_CURVE('',#229,(#234,#241),.PCURVE_S1.);
#229 = CIRCLE('',#230,0.75);
#230 = AXIS2_PLACEMENT_3D('',#231,#232,#233);
#231 = CARTESIAN_POINT('',(-19.,-0.75,0.75));
#232 = DIRECTION('',(1.,0.,0.));
#233 = DIRECTION('',(-0.,0.,1.));
#234 = PCURVE('',#32,#235);
#235 = DEFINITIONAL_REPRESENTATION('',(#236),#240);
#236 = CIRCLE('',#237,0.75);
#237 = AXIS2_PLACEMENT_2D('',#238,#239);
#238 = CARTESIAN_POINT('',(1.5,-0.75));
#239 = DIRECTION('',(1.,0.));
#240 = ( GEOMETRIC_REPRESENTATION_CONTEXT(2) 
PARAMETRIC_REPRESENTATION_CONTEXT() REPRESENTATION_CONTEXT('2D SPACE',''
  ) );
#241 = PCURVE('',#242,#247);
#242 = CYLINDRICAL_SURFACE('',#243,0.75);
#243 = AXIS2_PLACEMENT_3D('',#244,#245,#246);
#244 = CARTESIAN_POINT('',(-19.,-0.75,0.75));
#245 = DIRECTION('',(1.,0.,0.));
#246 = DIRECTION('',(-0.,0.,1.));
#247 = DEFINITIONAL_REPRESENTATION('',(#248),#252);
#248 = LINE('',#249,#250);
#249 = CARTESIAN_POINT('',(0.,0.));
#250 = VECTOR('',#251,1.);
#251 = DIRECTION('',(1.,0.));
#252 = ( GEOMETRIC_REPRESENTATION_CONTEXT(2) 
PARAMETRIC_REPRESENTATION_CONTEXT() REPRESENTATION_CONTEXT('2D SPACE',''
  ) );
#253 = ADVANCED_FACE('',(#254),#44,.F.);
#254 = FACE_BOUND('',#255,.F.);
#255 = EDGE_LOOP('',(#256,#279,#280,#303));
#256 = ORIENTED_EDGE('',*,*,#257,.F.);
#257 = EDGE_CURVE('',#22,#258,#260,.T.);
#258 = VERTEX_POINT('',#259);
#259 = CARTESIAN_POINT('',(-2.,-1.5,-0.75));
#260 = SURFACE_CURVE('',#261,(#265,#272),.PCURVE_S1.);
#261 = LINE('',#262,#263);
#262 = CARTESIAN_POINT('',(-19.,-1.5,-0.75));
#263 = VECTOR('',#264,1.);
#264 = DIRECTION('',(1.,0.,-0.));
#265 = PCURVE('',#44,#266);
#266 = DEFINITIONAL_REPRESENTATION('',(#267),#271);
#267 = LINE('',#268,#269);
#268 = CARTESIAN_POINT('',(0.,0.));
#269 = VECTOR('',#270,1.);
#270 = DIRECTION('',(0.,1.));
#271 = ( GEOMETRIC_REPRESENTATION_CONTEXT(2) 
PARAMETRIC_REPRESENTATION_CONTEXT() REPRESENTATION_CONTEXT('2D SPACE',''
  ) );
#272 = PCURVE('',#73,#273);
#273 = DEFINITIONAL_REPRESENTATION('',(#274),#278);
#274 = LINE('',#275,#276);
#275 = CARTESIAN_POINT('',(1.570796326795,0.));
#276 = VECTOR('',#277,1.);
#277 = DIRECTION('',(0.,1.));
#278 = ( GEOMETRIC_REPRESENTATION_CONTEXT(2) 
PARAMETRIC_REPRESENTATION_CONTEXT() REPRESENTATION_CONTEXT('2D SPACE',''
  ) );
#279 = ORIENTED_EDGE('',*,*,#21,.T.);
#280 = ORIENTED_EDGE('',*,*,#281,.T.);
#281 = EDGE_CURVE('',#24,#282,#284,.T.);
#282 = VERTEX_POINT('',#283);
#283 = CARTESIAN_POINT('',(-2.,-1.5,0.75));
#284 = SURFACE_CURVE('',#285,(#289,#296),.PCURVE_S1.);
#285 = LINE('',#286,#287);
#286 = CARTESIAN_POINT('',(-19.,-1.5,0.75));
#287 = VECTOR('',#288,1.);
#288 = DIRECTION('',(1.,0.,-0.));
#289 = PCURVE('',#44,#290);
#290 = DEFINITIONAL_REPRESENTATION('',(#291),#295);
#291 = LINE('',#292,#293);
#292 = CARTESIAN_POINT('',(1.5,0.));
#293 = VECTOR('',#294,1.);
#294 = DIRECTION('',(0.,1.));
#295 = ( GEOMETRIC_REPRESENTATION_CONTEXT(2) 
PARAMETRIC_REPRESENTATION_CONTEXT() REPRESENTATION_CONTEXT('2D SPACE',''
  ) );
#296 = PCURVE('',#242,#297);
#297 = DEFINITIONAL_REPRESENTATION('',(#298),#302);
#298 = LINE('',#299,#300);
#299 = CARTESIAN_POINT('',(1.570796326795,0.));
#300 = VECTOR('',#301,1.);
#301 = DIRECTION('',(0.,1.));
#302 = ( GEOMETRIC_REPRESENTATION_CONTEXT(2) 
PARAMETRIC_REPRESENTATION_CONTEXT() REPRESENTATION_CONTEXT('2D SPACE',''
  ) );
#303 = ORIENTED_EDGE('',*,*,#304,.F.);
#304 = EDGE_CURVE('',#258,#282,#305,.T.);
#305 = SURFACE_CURVE('',#306,(#310,#316),.PCURVE_S1.);
#306 = LINE('',#307,#308);
#307 = CARTESIAN_POINT('',(-2.,-1.5,-1.5));
#308 = VECTOR('',#309,1.);
#309 = DIRECTION('',(0.,0.,1.));
#310 = PCURVE('',#44,#311);
#311 = DEFINITIONAL_REPRESENTATION('',(#312),#315);
#312 = B_SPLINE_CURVE_WITH_KNOTS('',1,(#313,#314),.UNSPECIFIED.,.F.,.F.,
  (2,2),(0.6,2.4),.PIECEWISE_BEZIER_KNOTS.);
#313 = CARTESIAN_POINT('',(-0.15,17.));
#314 = CARTESIAN_POINT('',(1.65,17.));
#315 = ( GEOMETRIC_REPRESENTATION_CONTEXT(2) 
PARAMETRIC_REPRESENTATION_CONTEXT() REPRESENTATION_CONTEXT('2D SPACE',''
  ) );
#316 = PCURVE('',#317,#322);
#317 = CYLINDRICAL_SURFACE('',#318,2.5);
#318 = AXIS2_PLACEMENT_3D('',#319,#320,#321);
#319 = CARTESIAN_POINT('',(0.,0.,-1.5));
#320 = DIRECTION('',(0.,0.,1.));
#321 = DIRECTION('',(1.,0.,-0.));
#322 = DEFINITIONAL_REPRESENTATION('',(#323),#326);
#323 = B_SPLINE_CURVE_WITH_KNOTS('',1,(#324,#325),.UNSPECIFIED.,.F.,.F.,
  (2,2),(0.6,2.4),.PIECEWISE_BEZIER_KNOTS.);
#324 = CARTESIAN_POINT('',(3.785093762383,0.6));
#325 = CARTESIAN_POINT('',(3.785093762383,2.4));
#326 = ( GEOMETRIC_REPRESENTATION_CONTEXT(2) 
PARAMETRIC_REPRESENTATION_CONTEXT() REPRESENTATION_CONTEXT('2D SPACE',''
  ) );
#327 = ADVANCED_FACE('',(#328),#73,.T.);
#328 = FACE_BOUND('',#329,.T.);
#329 = EDGE_LOOP('',(#330,#392,#393,#394));
#330 = ORIENTED_EDGE('',*,*,#331,.F.);
#331 = EDGE_CURVE('',#258,#332,#334,.T.);
#332 = VERTEX_POINT('',#333);
#333 = CARTESIAN_POINT('',(-2.384848003542,-0.75,-1.5));
#334 = SURFACE_CURVE('',#335,(#352,#372),.PCURVE_S1.);
#335 = B_SPLINE_CURVE_WITH_KNOTS('',8,(#336,#337,#338,#339,#340,#341,
    #342,#343,#344,#345,#346,#347,#348,#349,#350,#351),.UNSPECIFIED.,.F.
  ,.F.,(9,7,9),(0.,0.235930388511,1.),.UNSPECIFIED.);
#336 = CARTESIAN_POINT('',(-2.,-1.5,-0.75));
#337 = CARTESIAN_POINT('',(-2.,-1.5,-0.783940626442));
#338 = CARTESIAN_POINT('',(-2.001316292279,-1.498244556565,
    -0.817862258082));
#339 = CARTESIAN_POINT('',(-2.003947084258,-1.49473730519,
    -0.851661850047));
#340 = CARTESIAN_POINT('',(-2.007870533265,-1.489488414208,
    -0.885234281336));
#341 = CARTESIAN_POINT('',(-2.013045833427,-1.482515916091,
    -0.918472869422));
#342 = CARTESIAN_POINT('',(-2.019414302559,-1.473847038756,
    -0.951269884846));
#343 = CARTESIAN_POINT('',(-2.026900469058,-1.463519536863,
    -0.983517065822));
#344 = CARTESIAN_POINT('',(-2.06298183097,-1.41292616559,-1.117408537844
    ));
#345 = CARTESIAN_POINT('',(-2.101439752979,-1.357225114471,
    -1.213258344655));
#346 = CARTESIAN_POINT('',(-2.148164648412,-1.285516733102,
    -1.29992482359));
#347 = CARTESIAN_POINT('',(-2.199556828877,-1.199112468538,
    -1.37467215912));
#348 = CARTESIAN_POINT('',(-2.25179310558,-1.099740769022,
    -1.434715129565));
#349 = CARTESIAN_POINT('',(-2.301630177975,-0.989733939963,
    -1.477356484825));
#350 = CARTESIAN_POINT('',(-2.346512201259,-0.871900082054,-1.5));
#351 = CARTESIAN_POINT('',(-2.384848003542,-0.75,-1.5));
#352 = PCURVE('',#73,#353);
#353 = DEFINITIONAL_REPRESENTATION('',(#354),#371);
#354 = B_SPLINE_CURVE_WITH_KNOTS('',8,(#355,#356,#357,#358,#359,#360,
    #361,#362,#363,#364,#365,#366,#367,#368,#369,#370),.UNSPECIFIED.,.F.
  ,.F.,(9,7,9),(0.,0.235930388511,1.),.UNSPECIFIED.);
#355 = CARTESIAN_POINT('',(1.570796326795,17.));
#356 = CARTESIAN_POINT('',(1.616050495385,17.));
#357 = CARTESIAN_POINT('',(1.661279503863,16.998683707721));
#358 = CARTESIAN_POINT('',(1.706486663803,16.996052915742));
#359 = CARTESIAN_POINT('',(1.751672738369,16.992129466735));
#360 = CARTESIAN_POINT('',(1.796834999997,16.986954166573));
#361 = CARTESIAN_POINT('',(1.841966288073,16.980585697441));
#362 = CARTESIAN_POINT('',(1.887054066616,16.973099530942));
#363 = CARTESIAN_POINT('',(2.077896016335,16.93701816903));
#364 = CARTESIAN_POINT('',(2.223697343017,16.898560247021));
#365 = CARTESIAN_POINT('',(2.370313831216,16.851835351588));
#366 = CARTESIAN_POINT('',(2.518433846724,16.800443171123));
#367 = CARTESIAN_POINT('',(2.668730542703,16.74820689442));
#368 = CARTESIAN_POINT('',(2.821947070299,16.698369822025));
#369 = CARTESIAN_POINT('',(2.979059210852,16.653487798741));
#370 = CARTESIAN_POINT('',(3.14159265359,16.615151996458));
#371 = ( GEOMETRIC_REPRESENTATION_CONTEXT(2) 
PARAMETRIC_REPRESENTATION_CONTEXT() REPRESENTATION_CONTEXT('2D SPACE',''
  ) );
#372 = PCURVE('',#317,#373);
#373 = DEFINITIONAL_REPRESENTATION('',(#374),#391);
#374 = B_SPLINE_CURVE_WITH_KNOTS('',8,(#375,#376,#377,#378,#379,#380,
    #381,#382,#383,#384,#385,#386,#387,#388,#389,#390),.UNSPECIFIED.,.F.
  ,.F.,(9,7,9),(0.,0.235930388511,1.),.UNSPECIFIED.);
#375 = CARTESIAN_POINT('',(3.785093762383,0.75));
#376 = CARTESIAN_POINT('',(3.785093762383,0.716059373558));
#377 = CARTESIAN_POINT('',(3.784216122813,0.682137741918));
#378 = CARTESIAN_POINT('',(3.782462395113,0.648338149953));
#379 = CARTESIAN_POINT('',(3.779841114173,0.614765718664));
#380 = CARTESIAN_POINT('',(3.776367857127,0.581527130578));
#381 = CARTESIAN_POINT('',(3.772065302158,0.548730115154));
#382 = CARTESIAN_POINT('',(3.766963287295,0.516482934178));
#383 = CARTESIAN_POINT('',(3.742106726329,0.382591462156));
#384 = CARTESIAN_POINT('',(3.715034913708,0.286741655345));
#385 = CARTESIAN_POINT('',(3.680818814987,0.20007517641));
#386 = CARTESIAN_POINT('',(3.640677232824,0.12532784088));
#387 = CARTESIAN_POINT('',(3.595908654585,6.528487043542E-02));
#388 = CARTESIAN_POINT('',(3.547747947251,2.264351517461E-02));
#389 = CARTESIAN_POINT('',(3.49739971065,0.));
#390 = CARTESIAN_POINT('',(3.446285307605,0.));
#391 = ( GEOMETRIC_REPRESENTATION_CONTEXT(2) 
PARAMETRIC_REPRESENTATION_CONTEXT() REPRESENTATION_CONTEXT('2D SPACE',''
  ) );
#392 = ORIENTED_EDGE('',*,*,#257,.F.);
#393 = ORIENTED_EDGE('',*,*,#56,.T.);
#394 = ORIENTED_EDGE('',*,*,#395,.T.);
#395 = EDGE_CURVE('',#57,#332,#396,.T.);
#396 = SURFACE_CURVE('',#397,(#401,#408),.PCURVE_S1.);
#397 = LINE('',#398,#399);
#398 = CARTESIAN_POINT('',(-19.,-0.75,-1.5));
#399 = VECTOR('',#400,1.);
#400 = DIRECTION('',(1.,0.,-0.));
#401 = PCURVE('',#73,#402);
#402 = DEFINITIONAL_REPRESENTATION('',(#403),#407);
#403 = LINE('',#404,#405);
#404 = CARTESIAN_POINT('',(3.14159265359,0.));
#405 = VECTOR('',#406,1.);
#406 = DIRECTION('',(0.,1.));
#407 = ( GEOMETRIC_REPRESENTATION_CONTEXT(2) 
PARAMETRIC_REPRESENTATION_CONTEXT() REPRESENTATION_CONTEXT('2D SPACE',''
  ) );
#408 = PCURVE('',#101,#409);
#409 = DEFINITIONAL_REPRESENTATION('',(#410),#414);
#410 = LINE('',#411,#412);
#411 = CARTESIAN_POINT('',(0.,0.));
#412 = VECTOR('',#413,1.);
#413 = DIRECTION('',(1.,0.));
#414 = ( GEOMETRIC_REPRESENTATION_CONTEXT(2) 
PARAMETRIC_REPRESENTATION_CONTEXT() REPRESENTATION_CONTEXT('2D SPACE',''
  ) );
#415 = ADVANCED_FACE('',(#416,#578),#101,.F.);
#416 = FACE_BOUND('',#417,.F.);
#417 = EDGE_LOOP('',(#418,#441,#442,#443,#467,#495,#523,#551));
#418 = ORIENTED_EDGE('',*,*,#419,.F.);
#419 = EDGE_CURVE('',#86,#420,#422,.T.);
#420 = VERTEX_POINT('',#421);
#421 = CARTESIAN_POINT('',(-2.384848003542,0.75,-1.5));
#422 = SURFACE_CURVE('',#423,(#427,#434),.PCURVE_S1.);
#423 = LINE('',#424,#425);
#424 = CARTESIAN_POINT('',(-19.,0.75,-1.5));
#425 = VECTOR('',#426,1.);
#426 = DIRECTION('',(1.,0.,-0.));
#427 = PCURVE('',#101,#428);
#428 = DEFINITIONAL_REPRESENTATION('',(#429),#433);
#429 = LINE('',#430,#431);
#430 = CARTESIAN_POINT('',(0.,1.5));
#431 = VECTOR('',#432,1.);
#432 = DIRECTION('',(1.,0.));
#433 = ( GEOMETRIC_REPRESENTATION_CONTEXT(2) 
PARAMETRIC_REPRESENTATION_CONTEXT() REPRESENTATION_CONTEXT('2D SPACE',''
  ) );
#434 = PCURVE('',#130,#435);
#435 = DEFINITIONAL_REPRESENTATION('',(#436),#440);
#436 = LINE('',#437,#438);
#437 = CARTESIAN_POINT('',(3.14159265359,0.));
#438 = VECTOR('',#439,1.);
#439 = DIRECTION('',(0.,1.));
#440 = ( GEOMETRIC_REPRESENTATION_CONTEXT(2) 
PARAMETRIC_REPRESENTATION_CONTEXT() REPRESENTATION_CONTEXT('2D SPACE',''
  ) );
#441 = ORIENTED_EDGE('',*,*,#85,.F.);
#442 = ORIENTED_EDGE('',*,*,#395,.T.);
#443 = ORIENTED_EDGE('',*,*,#444,.T.);
#444 = EDGE_CURVE('',#332,#445,#447,.T.);
#445 = VERTEX_POINT('',#446);
#446 = CARTESIAN_POINT('',(2.384848003542,-0.75,-1.5));
#447 = SURFACE_CURVE('',#448,(#453,#460),.PCURVE_S1.);
#448 = CIRCLE('',#449,2.5);
#449 = AXIS2_PLACEMENT_3D('',#450,#451,#452);
#450 = CARTESIAN_POINT('',(0.,0.,-1.5));
#451 = DIRECTION('',(0.,0.,1.));
#452 = DIRECTION('',(1.,0.,-0.));
#453 = PCURVE('',#101,#454);
#454 = DEFINITIONAL_REPRESENTATION('',(#455),#459);
#455 = CIRCLE('',#456,2.5);
#456 = AXIS2_PLACEMENT_2D('',#457,#458);
#457 = CARTESIAN_POINT('',(19.,0.75));
#458 = DIRECTION('',(1.,0.));
#459 = ( GEOMETRIC_REPRESENTATION_CONTEXT(2) 
PARAMETRIC_REPRESENTATION_CONTEXT() REPRESENTATION_CONTEXT('2D SPACE',''
  ) );
#460 = PCURVE('',#317,#461);
#461 = DEFINITIONAL_REPRESENTATION('',(#462),#466);
#462 = LINE('',#463,#464);
#463 = CARTESIAN_POINT('',(0.,0.));
#464 = VECTOR('',#465,1.);
#465 = DIRECTION('',(1.,0.));
#466 = ( GEOMETRIC_REPRESENTATION_CONTEXT(2) 
PARAMETRIC_REPRESENTATION_CONTEXT() REPRESENTATION_CONTEXT('2D SPACE',''
  ) );
#467 = ORIENTED_EDGE('',*,*,#468,.T.);
#468 = EDGE_CURVE('',#445,#469,#471,.T.);
#469 = VERTEX_POINT('',#470);
#470 = CARTESIAN_POINT('',(19.,-0.75,-1.5));
#471 = SURFACE_CURVE('',#472,(#476,#483),.PCURVE_S1.);
#472 = LINE('',#473,#474);
#473 = CARTESIAN_POINT('',(-19.,-0.75,-1.5));
#474 = VECTOR('',#475,1.);
#475 = DIRECTION('',(1.,0.,-0.));
#476 = PCURVE('',#101,#477);
#477 = DEFINITIONAL_REPRESENTATION('',(#478),#482);
#478 = LINE('',#479,#480);
#479 = CARTESIAN_POINT('',(0.,0.));
#480 = VECTOR('',#481,1.);
#481 = DIRECTION('',(1.,0.));
#482 = ( GEOMETRIC_REPRESENTATION_CONTEXT(2) 
PARAMETRIC_REPRESENTATION_CONTEXT() REPRESENTATION_CONTEXT('2D SPACE',''
  ) );
#483 = PCURVE('',#484,#489);
#484 = CYLINDRICAL_SURFACE('',#485,0.75);
#485 = AXIS2_PLACEMENT_3D('',#486,#487,#488);
#486 = CARTESIAN_POINT('',(-19.,-0.75,-0.75));
#487 = DIRECTION('',(1.,0.,0.));
#488 = DIRECTION('',(-0.,0.,1.));
#489 = DEFINITIONAL_REPRESENTATION('',(#490),#494);
#490 = LINE('',#491,#492);
#491 = CARTESIAN_POINT('',(3.14159265359,0.));
#492 = VECTOR('',#493,1.);
#493 = DIRECTION('',(0.,1.));
#494 = ( GEOMETRIC_REPRESENTATION_CONTEXT(2) 
PARAMETRIC_REPRESENTATION_CONTEXT() REPRESENTATION_CONTEXT('2D SPACE',''
  ) );
#495 = ORIENTED_EDGE('',*,*,#496,.T.);
#496 = EDGE_CURVE('',#469,#497,#499,.T.);
#497 = VERTEX_POINT('',#498);
#498 = CARTESIAN_POINT('',(19.,0.75,-1.5));
#499 = SURFACE_CURVE('',#500,(#504,#511),.PCURVE_S1.);
#500 = LINE('',#501,#502);
#501 = CARTESIAN_POINT('',(19.,-0.75,-1.5));
#502 = VECTOR('',#503,1.);
#503 = DIRECTION('',(-0.,1.,0.));
#504 = PCURVE('',#101,#505);
#505 = DEFINITIONAL_REPRESENTATION('',(#506),#510);
#506 = LINE('',#507,#508);
#507 = CARTESIAN_POINT('',(38.,0.));
#508 = VECTOR('',#509,1.);
#509 = DIRECTION('',(0.,1.));
#510 = ( GEOMETRIC_REPRESENTATION_CONTEXT(2) 
PARAMETRIC_REPRESENTATION_CONTEXT() REPRESENTATION_CONTEXT('2D SPACE',''
  ) );
#511 = PCURVE('',#512,#517);
#512 = PLANE('',#513);
#513 = AXIS2_PLACEMENT_3D('',#514,#515,#516);
#514 = CARTESIAN_POINT('',(19.,-0.75,0.75));
#515 = DIRECTION('',(1.,0.,0.));
#516 = DIRECTION('',(-0.,0.,1.));
#517 = DEFINITIONAL_REPRESENTATION('',(#518),#522);
#518 = LINE('',#519,#520);
#519 = CARTESIAN_POINT('',(-2.25,0.));
#520 = VECTOR('',#521,1.);
#521 = DIRECTION('',(0.,-1.));
#522 = ( GEOMETRIC_REPRESENTATION_CONTEXT(2) 
PARAMETRIC_REPRESENTATION_CONTEXT() REPRESENTATION_CONTEXT('2D SPACE',''
  ) );
#523 = ORIENTED_EDGE('',*,*,#524,.F.);
#524 = EDGE_CURVE('',#525,#497,#527,.T.);
#525 = VERTEX_POINT('',#526);
#526 = CARTESIAN_POINT('',(2.384848003542,0.75,-1.5));
#527 = SURFACE_CURVE('',#528,(#532,#539),.PCURVE_S1.);
#528 = LINE('',#529,#530);
#529 = CARTESIAN_POINT('',(-19.,0.75,-1.5));
#530 = VECTOR('',#531,1.);
#531 = DIRECTION('',(1.,0.,-0.));
#532 = PCURVE('',#101,#533);
#533 = DEFINITIONAL_REPRESENTATION('',(#534),#538);
#534 = LINE('',#535,#536);
#535 = CARTESIAN_POINT('',(0.,1.5));
#536 = VECTOR('',#537,1.);
#537 = DIRECTION('',(1.,0.));
#538 = ( GEOMETRIC_REPRESENTATION_CONTEXT(2) 
PARAMETRIC_REPRESENTATION_CONTEXT() REPRESENTATION_CONTEXT('2D SPACE',''
  ) );
#539 = PCURVE('',#540,#545);
#540 = CYLINDRICAL_SURFACE('',#541,0.75);
#541 = AXIS2_PLACEMENT_3D('',#542,#543,#544);
#542 = CARTESIAN_POINT('',(-19.,0.75,-0.75));
#543 = DIRECTION('',(1.,0.,0.));
#544 = DIRECTION('',(-0.,0.,1.));
#545 = DEFINITIONAL_REPRESENTATION('',(#546),#550);
#546 = LINE('',#547,#548);
#547 = CARTESIAN_POINT('',(3.14159265359,0.));
#548 = VECTOR('',#549,1.);
#549 = DIRECTION('',(0.,1.));
#550 = ( GEOMETRIC_REPRESENTATION_CONTEXT(2) 
PARAMETRIC_REPRESENTATION_CONTEXT() REPRESENTATION_CONTEXT('2D SPACE',''
  ) );
#551 = ORIENTED_EDGE('',*,*,#552,.T.);
#552 = EDGE_CURVE('',#525,#420,#553,.T.);
#553 = SURFACE_CURVE('',#554,(#559,#566),.PCURVE_S1.);
#554 = CIRCLE('',#555,2.5);
#555 = AXIS2_PLACEMENT_3D('',#556,#557,#558);
#556 = CARTESIAN_POINT('',(0.,0.,-1.5));
#557 = DIRECTION('',(0.,0.,1.));
#558 = DIRECTION('',(1.,0.,-0.));
#559 = PCURVE('',#101,#560);
#560 = DEFINITIONAL_REPRESENTATION('',(#561),#565);
#561 = CIRCLE('',#562,2.5);
#562 = AXIS2_PLACEMENT_2D('',#563,#564);
#563 = CARTESIAN_POINT('',(19.,0.75));
#564 = DIRECTION('',(1.,0.));
#565 = ( GEOMETRIC_REPRESENTATION_CONTEXT(2) 
PARAMETRIC_REPRESENTATION_CONTEXT() REPRESENTATION_CONTEXT('2D SPACE',''
  ) );
#566 = PCURVE('',#567,#572);
#567 = CYLINDRICAL_SURFACE('',#568,2.5);
#568 = AXIS2_PLACEMENT_3D('',#569,#570,#571);
#569 = CARTESIAN_POINT('',(0.,0.,-1.5));
#570 = DIRECTION('',(0.,0.,1.));
#571 = DIRECTION('',(1.,0.,-0.));
#572 = DEFINITIONAL_REPRESENTATION('',(#573),#577);
#573 = LINE('',#574,#575);
#574 = CARTESIAN_POINT('',(0.,0.));
#575 = VECTOR('',#576,1.);
#576 = DIRECTION('',(1.,0.));
#577 = ( GEOMETRIC_REPRESENTATION_CONTEXT(2) 
PARAMETRIC_REPRESENTATION_CONTEXT() REPRESENTATION_CONTEXT('2D SPACE',''
  ) );
#578 = FACE_BOUND('',#579,.F.);
#579 = EDGE_LOOP('',(#580));
#580 = ORIENTED_EDGE('',*,*,#581,.F.);
#581 = EDGE_CURVE('',#582,#582,#584,.T.);
#582 = VERTEX_POINT('',#583);
#583 = CARTESIAN_POINT('',(1.6,-3.918869757272E-16,-1.5));
#584 = SURFACE_CURVE('',#585,(#590,#597),.PCURVE_S1.);
#585 = CIRCLE('',#586,1.6);
#586 = AXIS2_PLACEMENT_3D('',#587,#588,#589);
#587 = CARTESIAN_POINT('',(0.,0.,-1.5));
#588 = DIRECTION('',(0.,0.,1.));
#589 = DIRECTION('',(1.,0.,-0.));
#590 = PCURVE('',#101,#591);
#591 = DEFINITIONAL_REPRESENTATION('',(#592),#596);
#592 = CIRCLE('',#593,1.6);
#593 = AXIS2_PLACEMENT_2D('',#594,#595);
#594 = CARTESIAN_POINT('',(19.,0.75));
#595 = DIRECTION('',(1.,0.));
#596 = ( GEOMETRIC_REPRESENTATION_CONTEXT(2) 
PARAMETRIC_REPRESENTATION_CONTEXT() REPRESENTATION_CONTEXT('2D SPACE',''
  ) );
#597 = PCURVE('',#598,#603);
#598 = CYLINDRICAL_SURFACE('',#599,1.6);
#599 = AXIS2_PLACEMENT_3D('',#600,#601,#602);
#600 = CARTESIAN_POINT('',(0.,0.,-1.6));
#601 = DIRECTION('',(0.,0.,1.));
#602 = DIRECTION('',(1.,0.,-0.));
#603 = DEFINITIONAL_REPRESENTATION('',(#604),#608);
#604 = LINE('',#605,#606);
#605 = CARTESIAN_POINT('',(0.,0.1));
#606 = VECTOR('',#607,1.);
#607 = DIRECTION('',(1.,0.));
#608 = ( GEOMETRIC_REPRESENTATION_CONTEXT(2) 
PARAMETRIC_REPRESENTATION_CONTEXT() REPRESENTATION_CONTEXT('2D SPACE',''
  ) );
#609 = ADVANCED_FACE('',(#610),#130,.T.);
#610 = FACE_BOUND('',#611,.T.);
#611 = EDGE_LOOP('',(#612,#613,#636,#690));
#612 = ORIENTED_EDGE('',*,*,#113,.T.);
#613 = ORIENTED_EDGE('',*,*,#614,.T.);
#614 = EDGE_CURVE('',#114,#615,#617,.T.);
#615 = VERTEX_POINT('',#616);
#616 = CARTESIAN_POINT('',(-2.,1.5,-0.75));
#617 = SURFACE_CURVE('',#618,(#622,#629),.PCURVE_S1.);
#618 = LINE('',#619,#620);
#619 = CARTESIAN_POINT('',(-19.,1.5,-0.75));
#620 = VECTOR('',#621,1.);
#621 = DIRECTION('',(1.,0.,-0.));
#622 = PCURVE('',#130,#623);
#623 = DEFINITIONAL_REPRESENTATION('',(#624),#628);
#624 = LINE('',#625,#626);
#625 = CARTESIAN_POINT('',(4.712388980385,0.));
#626 = VECTOR('',#627,1.);
#627 = DIRECTION('',(0.,1.));
#628 = ( GEOMETRIC_REPRESENTATION_CONTEXT(2) 
PARAMETRIC_REPRESENTATION_CONTEXT() REPRESENTATION_CONTEXT('2D SPACE',''
  ) );
#629 = PCURVE('',#158,#630);
#630 = DEFINITIONAL_REPRESENTATION('',(#631),#635);
#631 = LINE('',#632,#633);
#632 = CARTESIAN_POINT('',(0.,0.));
#633 = VECTOR('',#634,1.);
#634 = DIRECTION('',(0.,1.));
#635 = ( GEOMETRIC_REPRESENTATION_CONTEXT(2) 
PARAMETRIC_REPRESENTATION_CONTEXT() REPRESENTATION_CONTEXT('2D SPACE',''
  ) );
#636 = ORIENTED_EDGE('',*,*,#637,.F.);
#637 = EDGE_CURVE('',#420,#615,#638,.T.);
#638 = SURFACE_CURVE('',#639,(#654,#672),.PCURVE_S1.);
#639 = B_SPLINE_CURVE_WITH_KNOTS('',7,(#640,#641,#642,#643,#644,#645,
    #646,#647,#648,#649,#650,#651,#652,#653),.UNSPECIFIED.,.F.,.F.,(8,6,
    8),(0.,0.528331681809,1.),.UNSPECIFIED.);
#640 = CARTESIAN_POINT('',(-2.384848003542,0.75,-1.5));
#641 = CARTESIAN_POINT('',(-2.354706384907,0.8458442387,-1.5));
#642 = CARTESIAN_POINT('',(-2.32029295257,0.939568890403,-1.485710409547
    ));
#643 = CARTESIAN_POINT('',(-2.282414741882,1.029026521953,-1.45826937174
    ));
#644 = CARTESIAN_POINT('',(-2.242381480018,1.112419462064,
    -1.418981105804));
#645 = CARTESIAN_POINT('',(-2.201932217578,1.188220864823,
    -1.369345586223));
#646 = CARTESIAN_POINT('',(-2.163092821332,1.255218134338,
    -1.311051909561));
#647 = CARTESIAN_POINT('',(-2.09611095516,1.363796078573,-1.187894406786
    ));
#648 = CARTESIAN_POINT('',(-2.066847897263,1.408013508467,
    -1.123633038781));
#649 = CARTESIAN_POINT('',(-2.041368003696,1.444260566361,
    -1.054302760333));
#650 = CARTESIAN_POINT('',(-2.021076838411,1.471896519293,
    -0.981134395449));
#651 = CARTESIAN_POINT('',(-2.007080224774,1.490559924827,
    -0.905305595176));
#652 = CARTESIAN_POINT('',(-2.,1.5,-0.827901496755));
#653 = CARTESIAN_POINT('',(-2.,1.5,-0.75));
#654 = PCURVE('',#130,#655);
#655 = DEFINITIONAL_REPRESENTATION('',(#656),#671);
#656 = B_SPLINE_CURVE_WITH_KNOTS('',7,(#657,#658,#659,#660,#661,#662,
    #663,#664,#665,#666,#667,#668,#669,#670),.UNSPECIFIED.,.F.,.F.,(8,6,
    8),(0.,0.528331681809,1.),.UNSPECIFIED.);
#657 = CARTESIAN_POINT('',(3.14159265359,16.615151996458));
#658 = CARTESIAN_POINT('',(3.269384971857,16.645293615093));
#659 = CARTESIAN_POINT('',(3.394351424224,16.67970704743));
#660 = CARTESIAN_POINT('',(3.517035604465,16.717585258118));
#661 = CARTESIAN_POINT('',(3.63777780908,16.757618519981));
#662 = CARTESIAN_POINT('',(3.756786383955,16.798067782422));
#663 = CARTESIAN_POINT('',(3.874163335146,16.836907178668));
#664 = CARTESIAN_POINT('',(4.093077587112,16.90388904484));
#665 = CARTESIAN_POINT('',(4.196337185155,16.933152102737));
#666 = CARTESIAN_POINT('',(4.299436424868,16.958631996304));
#667 = CARTESIAN_POINT('',(4.402379199976,16.978923161589));
#668 = CARTESIAN_POINT('',(4.5053149164,16.992919775226));
#669 = CARTESIAN_POINT('',(4.608520318045,17.));
#670 = CARTESIAN_POINT('',(4.712388980385,17.));
#671 = ( GEOMETRIC_REPRESENTATION_CONTEXT(2) 
PARAMETRIC_REPRESENTATION_CONTEXT() REPRESENTATION_CONTEXT('2D SPACE',''
  ) );
#672 = PCURVE('',#567,#673);
#673 = DEFINITIONAL_REPRESENTATION('',(#674),#689);
#674 = B_SPLINE_CURVE_WITH_KNOTS('',7,(#675,#676,#677,#678,#679,#680,
    #681,#682,#683,#684,#685,#686,#687,#688),.UNSPECIFIED.,.F.,.F.,(8,6,
    8),(0.,0.528331681809,1.),.UNSPECIFIED.);
#675 = CARTESIAN_POINT('',(2.836899999574,0.));
#676 = CARTESIAN_POINT('',(2.796711174728,2.83755948221E-17));
#677 = CARTESIAN_POINT('',(2.756818507709,1.428959045273E-02));
#678 = CARTESIAN_POINT('',(2.718032271419,4.17306282604E-02));
#679 = CARTESIAN_POINT('',(2.681096524146,8.101889419576E-02));
#680 = CARTESIAN_POINT('',(2.646764295275,0.130654413777));
#681 = CARTESIAN_POINT('',(2.615799453429,0.188948090439));
#682 = CARTESIAN_POINT('',(2.564768889457,0.312105593214));
#683 = CARTESIAN_POINT('',(2.543570199938,0.376366961219));
#684 = CARTESIAN_POINT('',(2.525856635008,0.445697239667));
#685 = CARTESIAN_POINT('',(2.512143059224,0.518865604551));
#686 = CARTESIAN_POINT('',(2.502811629565,0.594694404824));
#687 = CARTESIAN_POINT('',(2.498091544797,0.672098503245));
#688 = CARTESIAN_POINT('',(2.498091544797,0.75));
#689 = ( GEOMETRIC_REPRESENTATION_CONTEXT(2) 
PARAMETRIC_REPRESENTATION_CONTEXT() REPRESENTATION_CONTEXT('2D SPACE',''
  ) );
#690 = ORIENTED_EDGE('',*,*,#419,.F.);
#691 = ADVANCED_FACE('',(#692),#158,.T.);
#692 = FACE_BOUND('',#693,.T.);
#693 = EDGE_LOOP('',(#694,#695,#696,#719));
#694 = ORIENTED_EDGE('',*,*,#614,.F.);
#695 = ORIENTED_EDGE('',*,*,#142,.T.);
#696 = ORIENTED_EDGE('',*,*,#697,.T.);
#697 = EDGE_CURVE('',#143,#698,#700,.T.);
#698 = VERTEX_POINT('',#699);
#699 = CARTESIAN_POINT('',(-2.,1.5,0.75));
#700 = SURFACE_CURVE('',#701,(#705,#712),.PCURVE_S1.);
#701 = LINE('',#702,#703);
#702 = CARTESIAN_POINT('',(-19.,1.5,0.75));
#703 = VECTOR('',#704,1.);
#704 = DIRECTION('',(1.,0.,-0.));
#705 = PCURVE('',#158,#706);
#706 = DEFINITIONAL_REPRESENTATION('',(#707),#711);
#707 = LINE('',#708,#709);
#708 = CARTESIAN_POINT('',(1.5,0.));
#709 = VECTOR('',#710,1.);
#710 = DIRECTION('',(0.,1.));
#711 = ( GEOMETRIC_REPRESENTATION_CONTEXT(2) 
PARAMETRIC_REPRESENTATION_CONTEXT() REPRESENTATION_CONTEXT('2D SPACE',''
  ) );
#712 = PCURVE('',#187,#713);
#713 = DEFINITIONAL_REPRESENTATION('',(#714),#718);
#714 = LINE('',#715,#716);
#715 = CARTESIAN_POINT('',(4.712388980385,0.));
#716 = VECTOR('',#717,1.);
#717 = DIRECTION('',(0.,1.));
#718 = ( GEOMETRIC_REPRESENTATION_CONTEXT(2) 
PARAMETRIC_REPRESENTATION_CONTEXT() REPRESENTATION_CONTEXT('2D SPACE',''
  ) );
#719 = ORIENTED_EDGE('',*,*,#720,.F.);
#720 = EDGE_CURVE('',#615,#698,#721,.T.);
#721 = SURFACE_CURVE('',#722,(#726,#732),.PCURVE_S1.);
#722 = LINE('',#723,#724);
#723 = CARTESIAN_POINT('',(-2.,1.5,-1.5));
#724 = VECTOR('',#725,1.);
#725 = DIRECTION('',(0.,0.,1.));
#726 = PCURVE('',#158,#727);
#727 = DEFINITIONAL_REPRESENTATION('',(#728),#731);
#728 = B_SPLINE_CURVE_WITH_KNOTS('',1,(#729,#730),.UNSPECIFIED.,.F.,.F.,
  (2,2),(0.6,2.4),.PIECEWISE_BEZIER_KNOTS.);
#729 = CARTESIAN_POINT('',(-0.15,17.));
#730 = CARTESIAN_POINT('',(1.65,17.));
#731 = ( GEOMETRIC_REPRESENTATION_CONTEXT(2) 
PARAMETRIC_REPRESENTATION_CONTEXT() REPRESENTATION_CONTEXT('2D SPACE',''
  ) );
#732 = PCURVE('',#567,#733);
#733 = DEFINITIONAL_REPRESENTATION('',(#734),#737);
#734 = B_SPLINE_CURVE_WITH_KNOTS('',1,(#735,#736),.UNSPECIFIED.,.F.,.F.,
  (2,2),(0.6,2.4),.PIECEWISE_BEZIER_KNOTS.);
#735 = CARTESIAN_POINT('',(2.498091544797,0.6));
#736 = CARTESIAN_POINT('',(2.498091544797,2.4));
#737 = ( GEOMETRIC_REPRESENTATION_CONTEXT(2) 
PARAMETRIC_REPRESENTATION_CONTEXT() REPRESENTATION_CONTEXT('2D SPACE',''
  ) );
#738 = ADVANCED_FACE('',(#739),#187,.T.);
#739 = FACE_BOUND('',#740,.T.);
#740 = EDGE_LOOP('',(#741,#742,#764,#818));
#741 = ORIENTED_EDGE('',*,*,#170,.T.);
#742 = ORIENTED_EDGE('',*,*,#743,.T.);
#743 = EDGE_CURVE('',#171,#744,#746,.T.);
#744 = VERTEX_POINT('',#745);
#745 = CARTESIAN_POINT('',(-2.384848003542,0.75,1.5));
#746 = SURFACE_CURVE('',#747,(#751,#757),.PCURVE_S1.);
#747 = LINE('',#748,#749);
#748 = CARTESIAN_POINT('',(-19.,0.75,1.5));
#749 = VECTOR('',#750,1.);
#750 = DIRECTION('',(1.,0.,-0.));
#751 = PCURVE('',#187,#752);
#752 = DEFINITIONAL_REPRESENTATION('',(#753),#756);
#753 = B_SPLINE_CURVE_WITH_KNOTS('',1,(#754,#755),.UNSPECIFIED.,.F.,.F.,
  (2,2),(0.,38.),.PIECEWISE_BEZIER_KNOTS.);
#754 = CARTESIAN_POINT('',(6.28318530718,0.));
#755 = CARTESIAN_POINT('',(6.28318530718,38.));
#756 = ( GEOMETRIC_REPRESENTATION_CONTEXT(2) 
PARAMETRIC_REPRESENTATION_CONTEXT() REPRESENTATION_CONTEXT('2D SPACE',''
  ) );
#757 = PCURVE('',#215,#758);
#758 = DEFINITIONAL_REPRESENTATION('',(#759),#763);
#759 = LINE('',#760,#761);
#760 = CARTESIAN_POINT('',(-19.,0.75));
#761 = VECTOR('',#762,1.);
#762 = DIRECTION('',(1.,0.));
#763 = ( GEOMETRIC_REPRESENTATION_CONTEXT(2) 
PARAMETRIC_REPRESENTATION_CONTEXT() REPRESENTATION_CONTEXT('2D SPACE',''
  ) );
#764 = ORIENTED_EDGE('',*,*,#765,.F.);
#765 = EDGE_CURVE('',#698,#744,#766,.T.);
#766 = SURFACE_CURVE('',#767,(#782,#800),.PCURVE_S1.);
#767 = B_SPLINE_CURVE_WITH_KNOTS('',7,(#768,#769,#770,#771,#772,#773,
    #774,#775,#776,#777,#778,#779,#780,#781),.UNSPECIFIED.,.F.,.F.,(8,6,
    8),(0.,0.471668318195,1.),.UNSPECIFIED.);
#768 = CARTESIAN_POINT('',(-2.,1.5,0.75));
#769 = CARTESIAN_POINT('',(-2.,1.5,0.827901496754));
#770 = CARTESIAN_POINT('',(-2.007080224774,1.490559924827,0.905305595175
    ));
#771 = CARTESIAN_POINT('',(-2.021076838411,1.471896519294,0.98113439545)
  );
#772 = CARTESIAN_POINT('',(-2.041368003696,1.44426056636,1.054302760333)
  );
#773 = CARTESIAN_POINT('',(-2.066847897263,1.408013508467,1.123633038781
    ));
#774 = CARTESIAN_POINT('',(-2.09611095516,1.363796078574,1.187894406785)
  );
#775 = CARTESIAN_POINT('',(-2.163092821332,1.255218134338,1.311051909561
    ));
#776 = CARTESIAN_POINT('',(-2.201932217578,1.188220864823,1.369345586223
    ));
#777 = CARTESIAN_POINT('',(-2.242381480019,1.112419462064,1.418981105804
    ));
#778 = CARTESIAN_POINT('',(-2.282414741882,1.029026521954,1.45826937174)
  );
#779 = CARTESIAN_POINT('',(-2.32029295257,0.939568890403,1.485710409547)
  );
#780 = CARTESIAN_POINT('',(-2.354706384907,0.8458442387,1.5));
#781 = CARTESIAN_POINT('',(-2.384848003542,0.75,1.5));
#782 = PCURVE('',#187,#783);
#783 = DEFINITIONAL_REPRESENTATION('',(#784),#799);
#784 = B_SPLINE_CURVE_WITH_KNOTS('',7,(#785,#786,#787,#788,#789,#790,
    #791,#792,#793,#794,#795,#796,#797,#798),.UNSPECIFIED.,.F.,.F.,(8,6,
    8),(0.,0.471668318195,1.),.UNSPECIFIED.);
#785 = CARTESIAN_POINT('',(4.712388980385,17.));
#786 = CARTESIAN_POINT('',(4.816257642723,17.));
#787 = CARTESIAN_POINT('',(4.919463044369,16.992919775226));
#788 = CARTESIAN_POINT('',(5.022398760794,16.978923161589));
#789 = CARTESIAN_POINT('',(5.125341535903,16.958631996304));
#790 = CARTESIAN_POINT('',(5.228440775615,16.933152102737));
#791 = CARTESIAN_POINT('',(5.331700373655,16.90388904484));
#792 = CARTESIAN_POINT('',(5.550614625624,16.836907178668));
#793 = CARTESIAN_POINT('',(5.667991576814,16.798067782422));
#794 = CARTESIAN_POINT('',(5.787000151689,16.757618519981));
#795 = CARTESIAN_POINT('',(5.907742356304,16.717585258118));
#796 = CARTESIAN_POINT('',(6.030426536546,16.67970704743));
#797 = CARTESIAN_POINT('',(6.155392988912,16.645293615093));
#798 = CARTESIAN_POINT('',(6.28318530718,16.615151996458));
#799 = ( GEOMETRIC_REPRESENTATION_CONTEXT(2) 
PARAMETRIC_REPRESENTATION_CONTEXT() REPRESENTATION_CONTEXT('2D SPACE',''
  ) );
#800 = PCURVE('',#567,#801);
#801 = DEFINITIONAL_REPRESENTATION('',(#802),#817);
#802 = B_SPLINE_CURVE_WITH_KNOTS('',7,(#803,#804,#805,#806,#807,#808,
    #809,#810,#811,#812,#813,#814,#815,#816),.UNSPECIFIED.,.F.,.F.,(8,6,
    8),(0.,0.471668318195,1.),.UNSPECIFIED.);
#803 = CARTESIAN_POINT('',(2.498091544797,2.25));
#804 = CARTESIAN_POINT('',(2.498091544797,2.327901496754));
#805 = CARTESIAN_POINT('',(2.502811629565,2.405305595175));
#806 = CARTESIAN_POINT('',(2.512143059224,2.48113439545));
#807 = CARTESIAN_POINT('',(2.525856635008,2.554302760333));
#808 = CARTESIAN_POINT('',(2.543570199939,2.623633038781));
#809 = CARTESIAN_POINT('',(2.564768889457,2.687894406785));
#810 = CARTESIAN_POINT('',(2.615799453429,2.811051909561));
#811 = CARTESIAN_POINT('',(2.646764295275,2.869345586223));
#812 = CARTESIAN_POINT('',(2.681096524146,2.918981105804));
#813 = CARTESIAN_POINT('',(2.718032271419,2.95826937174));
#814 = CARTESIAN_POINT('',(2.756818507709,2.985710409547));
#815 = CARTESIAN_POINT('',(2.796711174728,3.));
#816 = CARTESIAN_POINT('',(2.836899999574,3.));
#817 = ( GEOMETRIC_REPRESENTATION_CONTEXT(2) 
PARAMETRIC_REPRESENTATION_CONTEXT() REPRESENTATION_CONTEXT('2D SPACE',''
  ) );
#818 = ORIENTED_EDGE('',*,*,#697,.F.);
#819 = ADVANCED_FACE('',(#820),#215,.T.);
#820 = FACE_BOUND('',#821,.T.);
#821 = EDGE_LOOP('',(#822,#848,#875,#898,#925,#947,#948,#949));
#822 = ORIENTED_EDGE('',*,*,#823,.T.);
#823 = EDGE_CURVE('',#824,#826,#828,.T.);
#824 = VERTEX_POINT('',#825);
#825 = CARTESIAN_POINT('',(-2.384848003542,-0.75,1.5));
#826 = VERTEX_POINT('',#827);
#827 = CARTESIAN_POINT('',(2.384848003542,-0.75,1.5));
#828 = SURFACE_CURVE('',#829,(#834,#841),.PCURVE_S1.);
#829 = CIRCLE('',#830,2.5);
#830 = AXIS2_PLACEMENT_3D('',#831,#832,#833);
#831 = CARTESIAN_POINT('',(0.,0.,1.5));
#832 = DIRECTION('',(0.,0.,1.));
#833 = DIRECTION('',(1.,0.,-0.));
#834 = PCURVE('',#215,#835);
#835 = DEFINITIONAL_REPRESENTATION('',(#836),#840);
#836 = CIRCLE('',#837,2.5);
#837 = AXIS2_PLACEMENT_2D('',#838,#839);
#838 = CARTESIAN_POINT('',(0.,0.));
#839 = DIRECTION('',(1.,0.));
#840 = ( GEOMETRIC_REPRESENTATION_CONTEXT(2) 
PARAMETRIC_REPRESENTATION_CONTEXT() REPRESENTATION_CONTEXT('2D SPACE',''
  ) );
#841 = PCURVE('',#317,#842);
#842 = DEFINITIONAL_REPRESENTATION('',(#843),#847);
#843 = LINE('',#844,#845);
#844 = CARTESIAN_POINT('',(0.,3.));
#845 = VECTOR('',#846,1.);
#846 = DIRECTION('',(1.,0.));
#847 = ( GEOMETRIC_REPRESENTATION_CONTEXT(2) 
PARAMETRIC_REPRESENTATION_CONTEXT() REPRESENTATION_CONTEXT('2D SPACE',''
  ) );
#848 = ORIENTED_EDGE('',*,*,#849,.T.);
#849 = EDGE_CURVE('',#826,#850,#852,.T.);
#850 = VERTEX_POINT('',#851);
#851 = CARTESIAN_POINT('',(19.,-0.75,1.5));
#852 = SURFACE_CURVE('',#853,(#857,#864),.PCURVE_S1.);
#853 = LINE('',#854,#855);
#854 = CARTESIAN_POINT('',(-19.,-0.75,1.5));
#855 = VECTOR('',#856,1.);
#856 = DIRECTION('',(1.,0.,-0.));
#857 = PCURVE('',#215,#858);
#858 = DEFINITIONAL_REPRESENTATION('',(#859),#863);
#859 = LINE('',#860,#861);
#860 = CARTESIAN_POINT('',(-19.,-0.75));
#861 = VECTOR('',#862,1.);
#862 = DIRECTION('',(1.,0.));
#863 = ( GEOMETRIC_REPRESENTATION_CONTEXT(2) 
PARAMETRIC_REPRESENTATION_CONTEXT() REPRESENTATION_CONTEXT('2D SPACE',''
  ) );
#864 = PCURVE('',#865,#870);
#865 = CYLINDRICAL_SURFACE('',#866,0.75);
#866 = AXIS2_PLACEMENT_3D('',#867,#868,#869);
#867 = CARTESIAN_POINT('',(-19.,-0.75,0.75));
#868 = DIRECTION('',(1.,0.,0.));
#869 = DIRECTION('',(-0.,0.,1.));
#870 = DEFINITIONAL_REPRESENTATION('',(#871),#874);
#871 = B_SPLINE_CURVE_WITH_KNOTS('',1,(#872,#873),.UNSPECIFIED.,.F.,.F.,
  (2,2),(0.,38.),.PIECEWISE_BEZIER_KNOTS.);
#872 = CARTESIAN_POINT('',(0.,0.));
#873 = CARTESIAN_POINT('',(0.,38.));
#874 = ( GEOMETRIC_REPRESENTATION_CONTEXT(2) 
PARAMETRIC_REPRESENTATION_CONTEXT() REPRESENTATION_CONTEXT('2D SPACE',''
  ) );
#875 = ORIENTED_EDGE('',*,*,#876,.T.);
#876 = EDGE_CURVE('',#850,#877,#879,.T.);
#877 = VERTEX_POINT('',#878);
#878 = CARTESIAN_POINT('',(19.,0.75,1.5));
#879 = SURFACE_CURVE('',#880,(#884,#891),.PCURVE_S1.);
#880 = LINE('',#881,#882);
#881 = CARTESIAN_POINT('',(19.,-0.75,1.5));
#882 = VECTOR('',#883,1.);
#883 = DIRECTION('',(-0.,1.,0.));
#884 = PCURVE('',#215,#885);
#885 = DEFINITIONAL_REPRESENTATION('',(#886),#890);
#886 = LINE('',#887,#888);
#887 = CARTESIAN_POINT('',(19.,-0.75));
#888 = VECTOR('',#889,1.);
#889 = DIRECTION('',(0.,1.));
#890 = ( GEOMETRIC_REPRESENTATION_CONTEXT(2) 
PARAMETRIC_REPRESENTATION_CONTEXT() REPRESENTATION_CONTEXT('2D SPACE',''
  ) );
#891 = PCURVE('',#512,#892);
#892 = DEFINITIONAL_REPRESENTATION('',(#893),#897);
#893 = LINE('',#894,#895);
#894 = CARTESIAN_POINT('',(0.75,0.));
#895 = VECTOR('',#896,1.);
#896 = DIRECTION('',(0.,-1.));
#897 = ( GEOMETRIC_REPRESENTATION_CONTEXT(2) 
PARAMETRIC_REPRESENTATION_CONTEXT() REPRESENTATION_CONTEXT('2D SPACE',''
  ) );
#898 = ORIENTED_EDGE('',*,*,#899,.F.);
#899 = EDGE_CURVE('',#900,#877,#902,.T.);
#900 = VERTEX_POINT('',#901);
#901 = CARTESIAN_POINT('',(2.384848003542,0.75,1.5));
#902 = SURFACE_CURVE('',#903,(#907,#914),.PCURVE_S1.);
#903 = LINE('',#904,#905);
#904 = CARTESIAN_POINT('',(-19.,0.75,1.5));
#905 = VECTOR('',#906,1.);
#906 = DIRECTION('',(1.,0.,-0.));
#907 = PCURVE('',#215,#908);
#908 = DEFINITIONAL_REPRESENTATION('',(#909),#913);
#909 = LINE('',#910,#911);
#910 = CARTESIAN_POINT('',(-19.,0.75));
#911 = VECTOR('',#912,1.);
#912 = DIRECTION('',(1.,0.));
#913 = ( GEOMETRIC_REPRESENTATION_CONTEXT(2) 
PARAMETRIC_REPRESENTATION_CONTEXT() REPRESENTATION_CONTEXT('2D SPACE',''
  ) );
#914 = PCURVE('',#915,#920);
#915 = CYLINDRICAL_SURFACE('',#916,0.75);
#916 = AXIS2_PLACEMENT_3D('',#917,#918,#919);
#917 = CARTESIAN_POINT('',(-19.,0.75,0.75));
#918 = DIRECTION('',(1.,0.,0.));
#919 = DIRECTION('',(-0.,0.,1.));
#920 = DEFINITIONAL_REPRESENTATION('',(#921),#924);
#921 = B_SPLINE_CURVE_WITH_KNOTS('',1,(#922,#923),.UNSPECIFIED.,.F.,.F.,
  (2,2),(0.,38.),.PIECEWISE_BEZIER_KNOTS.);
#922 = CARTESIAN_POINT('',(6.28318530718,0.));
#923 = CARTESIAN_POINT('',(6.28318530718,38.));
#924 = ( GEOMETRIC_REPRESENTATION_CONTEXT(2) 
PARAMETRIC_REPRESENTATION_CONTEXT() REPRESENTATION_CONTEXT('2D SPACE',''
  ) );
#925 = ORIENTED_EDGE('',*,*,#926,.T.);
#926 = EDGE_CURVE('',#900,#744,#927,.T.);
#927 = SURFACE_CURVE('',#928,(#933,#940),.PCURVE_S1.);
#928 = CIRCLE('',#929,2.5);
#929 = AXIS2_PLACEMENT_3D('',#930,#931,#932);
#930 = CARTESIAN_POINT('',(0.,0.,1.5));
#931 = DIRECTION('',(0.,0.,1.));
#932 = DIRECTION('',(1.,0.,-0.));
#933 = PCURVE('',#215,#934);
#934 = DEFINITIONAL_REPRESENTATION('',(#935),#939);
#935 = CIRCLE('',#936,2.5);
#936 = AXIS2_PLACEMENT_2D('',#937,#938);
#937 = CARTESIAN_POINT('',(0.,0.));
#938 = DIRECTION('',(1.,0.));
#939 = ( GEOMETRIC_REPRESENTATION_CONTEXT(2) 
PARAMETRIC_REPRESENTATION_CONTEXT() REPRESENTATION_CONTEXT('2D SPACE',''
  ) );
#940 = PCURVE('',#567,#941);
#941 = DEFINITIONAL_REPRESENTATION('',(#942),#946);
#942 = LINE('',#943,#944);
#943 = CARTESIAN_POINT('',(0.,3.));
#944 = VECTOR('',#945,1.);
#945 = DIRECTION('',(1.,0.));
#946 = ( GEOMETRIC_REPRESENTATION_CONTEXT(2) 
PARAMETRIC_REPRESENTATION_CONTEXT() REPRESENTATION_CONTEXT('2D SPACE',''
  ) );
#947 = ORIENTED_EDGE('',*,*,#743,.F.);
#948 = ORIENTED_EDGE('',*,*,#199,.F.);
#949 = ORIENTED_EDGE('',*,*,#950,.T.);
#950 = EDGE_CURVE('',#200,#824,#951,.T.);
#951 = SURFACE_CURVE('',#952,(#956,#963),.PCURVE_S1.);
#952 = LINE('',#953,#954);
#953 = CARTESIAN_POINT('',(-19.,-0.75,1.5));
#954 = VECTOR('',#955,1.);
#955 = DIRECTION('',(1.,0.,-0.));
#956 = PCURVE('',#215,#957);
#957 = DEFINITIONAL_REPRESENTATION('',(#958),#962);
#958 = LINE('',#959,#960);
#959 = CARTESIAN_POINT('',(-19.,-0.75));
#960 = VECTOR('',#961,1.);
#961 = DIRECTION('',(1.,0.));
#962 = ( GEOMETRIC_REPRESENTATION_CONTEXT(2) 
PARAMETRIC_REPRESENTATION_CONTEXT() REPRESENTATION_CONTEXT('2D SPACE',''
  ) );
#963 = PCURVE('',#242,#964);
#964 = DEFINITIONAL_REPRESENTATION('',(#965),#968);
#965 = B_SPLINE_CURVE_WITH_KNOTS('',1,(#966,#967),.UNSPECIFIED.,.F.,.F.,
  (2,2),(0.,38.),.PIECEWISE_BEZIER_KNOTS.);
#966 = CARTESIAN_POINT('',(0.,0.));
#967 = CARTESIAN_POINT('',(0.,38.));
#968 = ( GEOMETRIC_REPRESENTATION_CONTEXT(2) 
PARAMETRIC_REPRESENTATION_CONTEXT() REPRESENTATION_CONTEXT('2D SPACE',''
  ) );
#969 = ADVANCED_FACE('',(#970),#242,.T.);
#970 = FACE_BOUND('',#971,.T.);
#971 = EDGE_LOOP('',(#972,#1026,#1027,#1028));
#972 = ORIENTED_EDGE('',*,*,#973,.F.);
#973 = EDGE_CURVE('',#824,#282,#974,.T.);
#974 = SURFACE_CURVE('',#975,(#990,#1008),.PCURVE_S1.);
#975 = B_SPLINE_CURVE_WITH_KNOTS('',7,(#976,#977,#978,#979,#980,#981,
    #982,#983,#984,#985,#986,#987,#988,#989),.UNSPECIFIED.,.F.,.F.,(8,6,
    8),(0.,0.52833168181,1.),.UNSPECIFIED.);
#976 = CARTESIAN_POINT('',(-2.384848003542,-0.75,1.5));
#977 = CARTESIAN_POINT('',(-2.354706384907,-0.8458442387,1.5));
#978 = CARTESIAN_POINT('',(-2.32029295257,-0.939568890403,1.485710409547
    ));
#979 = CARTESIAN_POINT('',(-2.282414741882,-1.029026521953,1.45826937174
    ));
#980 = CARTESIAN_POINT('',(-2.242381480018,-1.112419462064,
    1.418981105804));
#981 = CARTESIAN_POINT('',(-2.201932217578,-1.188220864823,
    1.369345586223));
#982 = CARTESIAN_POINT('',(-2.163092821332,-1.255218134338,
    1.311051909561));
#983 = CARTESIAN_POINT('',(-2.096110955161,-1.363796078573,
    1.187894406787));
#984 = CARTESIAN_POINT('',(-2.066847897262,-1.408013508468,
    1.123633038781));
#985 = CARTESIAN_POINT('',(-2.041368003696,-1.444260566361,
    1.054302760333));
#986 = CARTESIAN_POINT('',(-2.021076838411,-1.471896519294,
    0.981134395449));
#987 = CARTESIAN_POINT('',(-2.007080224775,-1.490559924827,
    0.905305595176));
#988 = CARTESIAN_POINT('',(-2.,-1.5,0.827901496755));
#989 = CARTESIAN_POINT('',(-2.,-1.5,0.75));
#990 = PCURVE('',#242,#991);
#991 = DEFINITIONAL_REPRESENTATION('',(#992),#1007);
#992 = B_SPLINE_CURVE_WITH_KNOTS('',7,(#993,#994,#995,#996,#997,#998,
    #999,#1000,#1001,#1002,#1003,#1004,#1005,#1006),.UNSPECIFIED.,.F.,
  .F.,(8,6,8),(0.,0.52833168181,1.),.UNSPECIFIED.);
#993 = CARTESIAN_POINT('',(0.,16.615151996458));
#994 = CARTESIAN_POINT('',(0.127792318267,16.645293615093));
#995 = CARTESIAN_POINT('',(0.252758770634,16.67970704743));
#996 = CARTESIAN_POINT('',(0.375442950875,16.717585258118));
#997 = CARTESIAN_POINT('',(0.496185155491,16.757618519982));
#998 = CARTESIAN_POINT('',(0.615193730365,16.798067782422));
#999 = CARTESIAN_POINT('',(0.732570681556,16.836907178668));
#1000 = CARTESIAN_POINT('',(0.951484933522,16.903889044839));
#1001 = CARTESIAN_POINT('',(1.054744531565,16.933152102738));
#1002 = CARTESIAN_POINT('',(1.157843771278,16.958631996304));
#1003 = CARTESIAN_POINT('',(1.260786546387,16.978923161589));
#1004 = CARTESIAN_POINT('',(1.36372226281,16.992919775225));
#1005 = CARTESIAN_POINT('',(1.466927664455,17.));
#1006 = CARTESIAN_POINT('',(1.570796326795,17.));
#1007 = ( GEOMETRIC_REPRESENTATION_CONTEXT(2) 
PARAMETRIC_REPRESENTATION_CONTEXT() REPRESENTATION_CONTEXT('2D SPACE',''
  ) );
#1008 = PCURVE('',#317,#1009);
#1009 = DEFINITIONAL_REPRESENTATION('',(#1010),#1025);
#1010 = B_SPLINE_CURVE_WITH_KNOTS('',7,(#1011,#1012,#1013,#1014,#1015,
    #1016,#1017,#1018,#1019,#1020,#1021,#1022,#1023,#1024),
  .UNSPECIFIED.,.F.,.F.,(8,6,8),(0.,0.52833168181,1.),.UNSPECIFIED.);
#1011 = CARTESIAN_POINT('',(3.446285307605,3.));
#1012 = CARTESIAN_POINT('',(3.486474132452,3.));
#1013 = CARTESIAN_POINT('',(3.526366799471,2.985710409547));
#1014 = CARTESIAN_POINT('',(3.565153035761,2.95826937174));
#1015 = CARTESIAN_POINT('',(3.602088783034,2.918981105804));
#1016 = CARTESIAN_POINT('',(3.636421011904,2.869345586223));
#1017 = CARTESIAN_POINT('',(3.667385853751,2.811051909561));
#1018 = CARTESIAN_POINT('',(3.718416417722,2.687894406787));
#1019 = CARTESIAN_POINT('',(3.739615107241,2.623633038781));
#1020 = CARTESIAN_POINT('',(3.757328672172,2.554302760333));
#1021 = CARTESIAN_POINT('',(3.771042247956,2.481134395449));
#1022 = CARTESIAN_POINT('',(3.780373677614,2.405305595176));
#1023 = CARTESIAN_POINT('',(3.785093762383,2.327901496755));
#1024 = CARTESIAN_POINT('',(3.785093762383,2.25));
#1025 = ( GEOMETRIC_REPRESENTATION_CONTEXT(2) 
PARAMETRIC_REPRESENTATION_CONTEXT() REPRESENTATION_CONTEXT('2D SPACE',''
  ) );
#1026 = ORIENTED_EDGE('',*,*,#950,.F.);
#1027 = ORIENTED_EDGE('',*,*,#227,.T.);
#1028 = ORIENTED_EDGE('',*,*,#281,.T.);
#1029 = ADVANCED_FACE('',(#1030),#317,.T.);
#1030 = FACE_BOUND('',#1031,.T.);
#1031 = EDGE_LOOP('',(#1032,#1088,#1089,#1090,#1091,#1092,#1093,#1155));
#1032 = ORIENTED_EDGE('',*,*,#1033,.F.);
#1033 = EDGE_CURVE('',#826,#1034,#1036,.T.);
#1034 = VERTEX_POINT('',#1035);
#1035 = CARTESIAN_POINT('',(2.,-1.5,0.75));
#1036 = SURFACE_CURVE('',#1037,(#1052,#1070),.PCURVE_S1.);
#1037 = B_SPLINE_CURVE_WITH_KNOTS('',7,(#1038,#1039,#1040,#1041,#1042,
    #1043,#1044,#1045,#1046,#1047,#1048,#1049,#1050,#1051),
  .UNSPECIFIED.,.F.,.F.,(8,6,8),(0.,0.528331690902,1.),.UNSPECIFIED.);
#1038 = CARTESIAN_POINT('',(2.384848003542,-0.75,1.5));
#1039 = CARTESIAN_POINT('',(2.354706385942,-0.84584423541,1.5));
#1040 = CARTESIAN_POINT('',(2.320292950135,-0.939568898643,
    1.485710410266));
#1041 = CARTESIAN_POINT('',(2.282414743095,-1.029026515103,
    1.458269368063));
#1042 = CARTESIAN_POINT('',(2.242381482174,-1.112419461268,
    1.418981112879));
#1043 = CARTESIAN_POINT('',(2.201932214457,-1.188220869267,1.36934557988
    ));
#1044 = CARTESIAN_POINT('',(2.163092822624,-1.255218132244,
    1.311051911936));
#1045 = CARTESIAN_POINT('',(2.09611095516,-1.363796078573,1.187894406786
    ));
#1046 = CARTESIAN_POINT('',(2.066847897263,-1.408013508467,
    1.123633038781));
#1047 = CARTESIAN_POINT('',(2.041368003696,-1.44426056636,1.054302760333
    ));
#1048 = CARTESIAN_POINT('',(2.021076838411,-1.471896519294,
    0.981134395449));
#1049 = CARTESIAN_POINT('',(2.007080224774,-1.490559924827,
    0.905305595176));
#1050 = CARTESIAN_POINT('',(2.,-1.5,0.827901496754));
#1051 = CARTESIAN_POINT('',(2.,-1.5,0.75));
#1052 = PCURVE('',#317,#1053);
#1053 = DEFINITIONAL_REPRESENTATION('',(#1054),#1069);
#1054 = B_SPLINE_CURVE_WITH_KNOTS('',7,(#1055,#1056,#1057,#1058,#1059,
    #1060,#1061,#1062,#1063,#1064,#1065,#1066,#1067,#1068),
  .UNSPECIFIED.,.F.,.F.,(8,6,8),(0.,0.528331690902,1.),.UNSPECIFIED.);
#1055 = CARTESIAN_POINT('',(5.978492653164,3.));
#1056 = CARTESIAN_POINT('',(5.938303829697,3.));
#1057 = CARTESIAN_POINT('',(5.898411157873,2.985710410266));
#1058 = CARTESIAN_POINT('',(5.859624927721,2.958269368063));
#1059 = CARTESIAN_POINT('',(5.822689178385,2.918981112879));
#1060 = CARTESIAN_POINT('',(5.788356946716,2.86934557988));
#1061 = CARTESIAN_POINT('',(5.757392108002,2.811051911936));
#1062 = CARTESIAN_POINT('',(5.706361543047,2.687894406786));
#1063 = CARTESIAN_POINT('',(5.685162853528,2.623633038781));
#1064 = CARTESIAN_POINT('',(5.667449288598,2.554302760333));
#1065 = CARTESIAN_POINT('',(5.653735712813,2.48113439545));
#1066 = CARTESIAN_POINT('',(5.644404283155,2.405305595176));
#1067 = CARTESIAN_POINT('',(5.639684198386,2.327901496754));
#1068 = CARTESIAN_POINT('',(5.639684198386,2.25));
#1069 = ( GEOMETRIC_REPRESENTATION_CONTEXT(2) 
PARAMETRIC_REPRESENTATION_CONTEXT() REPRESENTATION_CONTEXT('2D SPACE',''
  ) );
#1070 = PCURVE('',#865,#1071);
#1071 = DEFINITIONAL_REPRESENTATION('',(#1072),#1087);
#1072 = B_SPLINE_CURVE_WITH_KNOTS('',7,(#1073,#1074,#1075,#1076,#1077,
    #1078,#1079,#1080,#1081,#1082,#1083,#1084,#1085,#1086),
  .UNSPECIFIED.,.F.,.F.,(8,6,8),(0.,0.528331690902,1.),.UNSPECIFIED.);
#1073 = CARTESIAN_POINT('',(0.,21.384848003542));
#1074 = CARTESIAN_POINT('',(0.12779231388,21.354706385942));
#1075 = CARTESIAN_POINT('',(0.252758781042,21.320292950135));
#1076 = CARTESIAN_POINT('',(0.375442944085,21.282414743095));
#1077 = CARTESIAN_POINT('',(0.496185150296,21.242381482174));
#1078 = CARTESIAN_POINT('',(0.615193739965,21.201932214457));
#1079 = CARTESIAN_POINT('',(0.732570677335,21.163092822624));
#1080 = CARTESIAN_POINT('',(0.951484933523,21.09611095516));
#1081 = CARTESIAN_POINT('',(1.054744531565,21.066847897263));
#1082 = CARTESIAN_POINT('',(1.157843771277,21.041368003696));
#1083 = CARTESIAN_POINT('',(1.260786546386,21.021076838411));
#1084 = CARTESIAN_POINT('',(1.36372226281,21.007080224774));
#1085 = CARTESIAN_POINT('',(1.466927664456,21.));
#1086 = CARTESIAN_POINT('',(1.570796326795,21.));
#1087 = ( GEOMETRIC_REPRESENTATION_CONTEXT(2) 
PARAMETRIC_REPRESENTATION_CONTEXT() REPRESENTATION_CONTEXT('2D SPACE',''
  ) );
#1088 = ORIENTED_EDGE('',*,*,#823,.F.);
#1089 = ORIENTED_EDGE('',*,*,#973,.T.);
#1090 = ORIENTED_EDGE('',*,*,#304,.F.);
#1091 = ORIENTED_EDGE('',*,*,#331,.T.);
#1092 = ORIENTED_EDGE('',*,*,#444,.T.);
#1093 = ORIENTED_EDGE('',*,*,#1094,.F.);
#1094 = EDGE_CURVE('',#1095,#445,#1097,.T.);
#1095 = VERTEX_POINT('',#1096);
#1096 = CARTESIAN_POINT('',(2.,-1.5,-0.75));
#1097 = SURFACE_CURVE('',#1098,(#1115,#1135),.PCURVE_S1.);
#1098 = B_SPLINE_CURVE_WITH_KNOTS('',8,(#1099,#1100,#1101,#1102,#1103,
    #1104,#1105,#1106,#1107,#1108,#1109,#1110,#1111,#1112,#1113,#1114),
  .UNSPECIFIED.,.F.,.F.,(9,7,9),(0.,0.235930388519,1.),.UNSPECIFIED.);
#1099 = CARTESIAN_POINT('',(2.,-1.5,-0.75));
#1100 = CARTESIAN_POINT('',(2.,-1.5,-0.783940626442));
#1101 = CARTESIAN_POINT('',(2.001316292279,-1.498244556565,
    -0.817862258082));
#1102 = CARTESIAN_POINT('',(2.003947084258,-1.49473730519,
    -0.851661850047));
#1103 = CARTESIAN_POINT('',(2.007870533265,-1.489488414208,
    -0.885234281336));
#1104 = CARTESIAN_POINT('',(2.013045833427,-1.482515916091,
    -0.918472869422));
#1105 = CARTESIAN_POINT('',(2.019414302559,-1.473847038756,
    -0.951269884846));
#1106 = CARTESIAN_POINT('',(2.026900469058,-1.463519536863,
    -0.983517065822));
#1107 = CARTESIAN_POINT('',(2.062981830968,-1.412926165592,
    -1.11740853784));
#1108 = CARTESIAN_POINT('',(2.101439752981,-1.357225114469,
    -1.213258344667));
#1109 = CARTESIAN_POINT('',(2.148164648413,-1.285516733099,
    -1.299924823582));
#1110 = CARTESIAN_POINT('',(2.199556828871,-1.199112468548,
    -1.374672159118));
#1111 = CARTESIAN_POINT('',(2.251793105584,-1.099740769019,
    -1.434715129569));
#1112 = CARTESIAN_POINT('',(2.301630177976,-0.989733939957,
    -1.477356484824));
#1113 = CARTESIAN_POINT('',(2.346512201258,-0.871900082057,-1.5));
#1114 = CARTESIAN_POINT('',(2.384848003542,-0.75,-1.5));
#1115 = PCURVE('',#317,#1116);
#1116 = DEFINITIONAL_REPRESENTATION('',(#1117),#1134);
#1117 = B_SPLINE_CURVE_WITH_KNOTS('',8,(#1118,#1119,#1120,#1121,#1122,
    #1123,#1124,#1125,#1126,#1127,#1128,#1129,#1130,#1131,#1132,#1133),
  .UNSPECIFIED.,.F.,.F.,(9,7,9),(0.,0.235930388519,1.),.UNSPECIFIED.);
#1118 = CARTESIAN_POINT('',(5.639684198386,0.75));
#1119 = CARTESIAN_POINT('',(5.639684198386,0.716059373558));
#1120 = CARTESIAN_POINT('',(5.640561837956,0.682137741918));
#1121 = CARTESIAN_POINT('',(5.642315565656,0.648338149953));
#1122 = CARTESIAN_POINT('',(5.644936846597,0.614765718664));
#1123 = CARTESIAN_POINT('',(5.648410103643,0.581527130578));
#1124 = CARTESIAN_POINT('',(5.652712658611,0.548730115154));
#1125 = CARTESIAN_POINT('',(5.657814673475,0.516482934178));
#1126 = CARTESIAN_POINT('',(5.68267123444,0.38259146216));
#1127 = CARTESIAN_POINT('',(5.709743047063,0.286741655333));
#1128 = CARTESIAN_POINT('',(5.743959145784,0.200075176418));
#1129 = CARTESIAN_POINT('',(5.784100727941,0.125327840882));
#1130 = CARTESIAN_POINT('',(5.828869306185,6.528487043131E-02));
#1131 = CARTESIAN_POINT('',(5.877030013521,2.26435151759E-02));
#1132 = CARTESIAN_POINT('',(5.927378250118,7.217934816191E-17));
#1133 = CARTESIAN_POINT('',(5.978492653164,0.));
#1134 = ( GEOMETRIC_REPRESENTATION_CONTEXT(2) 
PARAMETRIC_REPRESENTATION_CONTEXT() REPRESENTATION_CONTEXT('2D SPACE',''
  ) );
#1135 = PCURVE('',#484,#1136);
#1136 = DEFINITIONAL_REPRESENTATION('',(#1137),#1154);
#1137 = B_SPLINE_CURVE_WITH_KNOTS('',8,(#1138,#1139,#1140,#1141,#1142,
    #1143,#1144,#1145,#1146,#1147,#1148,#1149,#1150,#1151,#1152,#1153),
  .UNSPECIFIED.,.F.,.F.,(9,7,9),(0.,0.235930388519,1.),.UNSPECIFIED.);
#1138 = CARTESIAN_POINT('',(1.570796326795,21.));
#1139 = CARTESIAN_POINT('',(1.616050495385,21.));
#1140 = CARTESIAN_POINT('',(1.661279503863,21.001316292279));
#1141 = CARTESIAN_POINT('',(1.706486663803,21.003947084258));
#1142 = CARTESIAN_POINT('',(1.751672738369,21.007870533265));
#1143 = CARTESIAN_POINT('',(1.796834999996,21.013045833427));
#1144 = CARTESIAN_POINT('',(1.841966288073,21.019414302559));
#1145 = CARTESIAN_POINT('',(1.887054066616,21.026900469058));
#1146 = CARTESIAN_POINT('',(2.077896016329,21.062981830968));
#1147 = CARTESIAN_POINT('',(2.223697343032,21.101439752981));
#1148 = CARTESIAN_POINT('',(2.370313831209,21.148164648413));
#1149 = CARTESIAN_POINT('',(2.518433846718,21.199556828871));
#1150 = CARTESIAN_POINT('',(2.668730542704,21.251793105584));
#1151 = CARTESIAN_POINT('',(2.821947070307,21.301630177976));
#1152 = CARTESIAN_POINT('',(2.979059210847,21.346512201258));
#1153 = CARTESIAN_POINT('',(3.14159265359,21.384848003542));
#1154 = ( GEOMETRIC_REPRESENTATION_CONTEXT(2) 
PARAMETRIC_REPRESENTATION_CONTEXT() REPRESENTATION_CONTEXT('2D SPACE',''
  ) );
#1155 = ORIENTED_EDGE('',*,*,#1156,.T.);
#1156 = EDGE_CURVE('',#1095,#1034,#1157,.T.);
#1157 = SURFACE_CURVE('',#1158,(#1162,#1168),.PCURVE_S1.);
#1158 = LINE('',#1159,#1160);
#1159 = CARTESIAN_POINT('',(2.,-1.5,-1.5));
#1160 = VECTOR('',#1161,1.);
#1161 = DIRECTION('',(0.,0.,1.));
#1162 = PCURVE('',#317,#1163);
#1163 = DEFINITIONAL_REPRESENTATION('',(#1164),#1167);
#1164 = B_SPLINE_CURVE_WITH_KNOTS('',1,(#1165,#1166),.UNSPECIFIED.,.F.,
  .F.,(2,2),(0.6,2.4),.PIECEWISE_BEZIER_KNOTS.);
#1165 = CARTESIAN_POINT('',(5.639684198386,0.6));
#1166 = CARTESIAN_POINT('',(5.639684198386,2.4));
#1167 = ( GEOMETRIC_REPRESENTATION_CONTEXT(2) 
PARAMETRIC_REPRESENTATION_CONTEXT() REPRESENTATION_CONTEXT('2D SPACE',''
  ) );
#1168 = PCURVE('',#1169,#1174);
#1169 = PLANE('',#1170);
#1170 = AXIS2_PLACEMENT_3D('',#1171,#1172,#1173);
#1171 = CARTESIAN_POINT('',(-19.,-1.5,-0.75));
#1172 = DIRECTION('',(-0.,1.,0.));
#1173 = DIRECTION('',(0.,0.,1.));
#1174 = DEFINITIONAL_REPRESENTATION('',(#1175),#1178);
#1175 = B_SPLINE_CURVE_WITH_KNOTS('',1,(#1176,#1177),.UNSPECIFIED.,.F.,
  .F.,(2,2),(0.6,2.4),.PIECEWISE_BEZIER_KNOTS.);
#1176 = CARTESIAN_POINT('',(-0.15,21.));
#1177 = CARTESIAN_POINT('',(1.65,21.));
#1178 = ( GEOMETRIC_REPRESENTATION_CONTEXT(2) 
PARAMETRIC_REPRESENTATION_CONTEXT() REPRESENTATION_CONTEXT('2D SPACE',''
  ) );
#1179 = ADVANCED_FACE('',(#1180),#567,.T.);
#1180 = FACE_BOUND('',#1181,.T.);
#1181 = EDGE_LOOP('',(#1182,#1183,#1239,#1265,#1319,#1320,#1321,#1322));
#1182 = ORIENTED_EDGE('',*,*,#926,.F.);
#1183 = ORIENTED_EDGE('',*,*,#1184,.F.);
#1184 = EDGE_CURVE('',#1185,#900,#1187,.T.);
#1185 = VERTEX_POINT('',#1186);
#1186 = CARTESIAN_POINT('',(2.,1.5,0.75));
#1187 = SURFACE_CURVE('',#1188,(#1203,#1221),.PCURVE_S1.);
#1188 = B_SPLINE_CURVE_WITH_KNOTS('',7,(#1189,#1190,#1191,#1192,#1193,
    #1194,#1195,#1196,#1197,#1198,#1199,#1200,#1201,#1202),
  .UNSPECIFIED.,.F.,.F.,(8,6,8),(0.,0.471668318193,1.),.UNSPECIFIED.);
#1189 = CARTESIAN_POINT('',(2.,1.5,0.75));
#1190 = CARTESIAN_POINT('',(2.,1.5,0.827901496754));
#1191 = CARTESIAN_POINT('',(2.007080224774,1.490559924827,0.905305595176
    ));
#1192 = CARTESIAN_POINT('',(2.021076838411,1.471896519294,0.98113439545)
  );
#1193 = CARTESIAN_POINT('',(2.041368003696,1.44426056636,1.054302760333)
  );
#1194 = CARTESIAN_POINT('',(2.066847897263,1.408013508467,1.123633038781
    ));
#1195 = CARTESIAN_POINT('',(2.09611095516,1.363796078573,1.187894406786)
  );
#1196 = CARTESIAN_POINT('',(2.163092821332,1.255218134338,1.311051909561
    ));
#1197 = CARTESIAN_POINT('',(2.201932217578,1.188220864823,1.369345586223
    ));
#1198 = CARTESIAN_POINT('',(2.242381480018,1.112419462064,1.418981105804
    ));
#1199 = CARTESIAN_POINT('',(2.282414741882,1.029026521953,1.45826937174)
  );
#1200 = CARTESIAN_POINT('',(2.32029295257,0.939568890403,1.485710409547)
  );
#1201 = CARTESIAN_POINT('',(2.354706384907,0.8458442387,1.5));
#1202 = CARTESIAN_POINT('',(2.384848003542,0.75,1.5));
#1203 = PCURVE('',#567,#1204);
#1204 = DEFINITIONAL_REPRESENTATION('',(#1205),#1220);
#1205 = B_SPLINE_CURVE_WITH_KNOTS('',7,(#1206,#1207,#1208,#1209,#1210,
    #1211,#1212,#1213,#1214,#1215,#1216,#1217,#1218,#1219),
  .UNSPECIFIED.,.F.,.F.,(8,6,8),(0.,0.471668318193,1.),.UNSPECIFIED.);
#1206 = CARTESIAN_POINT('',(0.643501108793,2.25));
#1207 = CARTESIAN_POINT('',(0.643501108793,2.327901496754));
#1208 = CARTESIAN_POINT('',(0.638781024025,2.405305595176));
#1209 = CARTESIAN_POINT('',(0.629449594366,2.48113439545));
#1210 = CARTESIAN_POINT('',(0.615736018582,2.554302760333));
#1211 = CARTESIAN_POINT('',(0.598022453651,2.623633038781));
#1212 = CARTESIAN_POINT('',(0.576823764133,2.687894406786));
#1213 = CARTESIAN_POINT('',(0.525793200161,2.811051909561));
#1214 = CARTESIAN_POINT('',(0.494828358315,2.869345586223));
#1215 = CARTESIAN_POINT('',(0.460496129444,2.918981105804));
#1216 = CARTESIAN_POINT('',(0.423560382171,2.95826937174));
#1217 = CARTESIAN_POINT('',(0.384774145881,2.985710409547));
#1218 = CARTESIAN_POINT('',(0.344881478862,3.));
#1219 = CARTESIAN_POINT('',(0.304692654015,3.));
#1220 = ( GEOMETRIC_REPRESENTATION_CONTEXT(2) 
PARAMETRIC_REPRESENTATION_CONTEXT() REPRESENTATION_CONTEXT('2D SPACE',''
  ) );
#1221 = PCURVE('',#915,#1222);
#1222 = DEFINITIONAL_REPRESENTATION('',(#1223),#1238);
#1223 = B_SPLINE_CURVE_WITH_KNOTS('',7,(#1224,#1225,#1226,#1227,#1228,
    #1229,#1230,#1231,#1232,#1233,#1234,#1235,#1236,#1237),
  .UNSPECIFIED.,.F.,.F.,(8,6,8),(0.,0.471668318193,1.),.UNSPECIFIED.);
#1224 = CARTESIAN_POINT('',(4.712388980385,21.));
#1225 = CARTESIAN_POINT('',(4.816257642724,21.));
#1226 = CARTESIAN_POINT('',(4.91946304437,21.007080224774));
#1227 = CARTESIAN_POINT('',(5.022398760793,21.021076838411));
#1228 = CARTESIAN_POINT('',(5.125341535902,21.041368003696));
#1229 = CARTESIAN_POINT('',(5.228440775614,21.066847897263));
#1230 = CARTESIAN_POINT('',(5.331700373657,21.09611095516));
#1231 = CARTESIAN_POINT('',(5.550614625624,21.163092821332));
#1232 = CARTESIAN_POINT('',(5.667991576815,21.201932217578));
#1233 = CARTESIAN_POINT('',(5.787000151689,21.242381480018));
#1234 = CARTESIAN_POINT('',(5.907742356304,21.282414741882));
#1235 = CARTESIAN_POINT('',(6.030426536545,21.32029295257));
#1236 = CARTESIAN_POINT('',(6.155392988912,21.354706384907));
#1237 = CARTESIAN_POINT('',(6.28318530718,21.384848003542));
#1238 = ( GEOMETRIC_REPRESENTATION_CONTEXT(2) 
PARAMETRIC_REPRESENTATION_CONTEXT() REPRESENTATION_CONTEXT('2D SPACE',''
  ) );
#1239 = ORIENTED_EDGE('',*,*,#1240,.F.);
#1240 = EDGE_CURVE('',#1241,#1185,#1243,.T.);
#1241 = VERTEX_POINT('',#1242);
#1242 = CARTESIAN_POINT('',(2.,1.5,-0.75));
#1243 = SURFACE_CURVE('',#1244,(#1248,#1254),.PCURVE_S1.);
#1244 = LINE('',#1245,#1246);
#1245 = CARTESIAN_POINT('',(2.,1.5,-1.5));
#1246 = VECTOR('',#1247,1.);
#1247 = DIRECTION('',(0.,0.,1.));
#1248 = PCURVE('',#567,#1249);
#1249 = DEFINITIONAL_REPRESENTATION('',(#1250),#1253);
#1250 = B_SPLINE_CURVE_WITH_KNOTS('',1,(#1251,#1252),.UNSPECIFIED.,.F.,
  .F.,(2,2),(0.6,2.4),.PIECEWISE_BEZIER_KNOTS.);
#1251 = CARTESIAN_POINT('',(0.643501108793,0.6));
#1252 = CARTESIAN_POINT('',(0.643501108793,2.4));
#1253 = ( GEOMETRIC_REPRESENTATION_CONTEXT(2) 
PARAMETRIC_REPRESENTATION_CONTEXT() REPRESENTATION_CONTEXT('2D SPACE',''
  ) );
#1254 = PCURVE('',#1255,#1260);
#1255 = PLANE('',#1256);
#1256 = AXIS2_PLACEMENT_3D('',#1257,#1258,#1259);
#1257 = CARTESIAN_POINT('',(-19.,1.5,-0.75));
#1258 = DIRECTION('',(-0.,1.,0.));
#1259 = DIRECTION('',(0.,0.,1.));
#1260 = DEFINITIONAL_REPRESENTATION('',(#1261),#1264);
#1261 = B_SPLINE_CURVE_WITH_KNOTS('',1,(#1262,#1263),.UNSPECIFIED.,.F.,
  .F.,(2,2),(0.6,2.4),.PIECEWISE_BEZIER_KNOTS.);
#1262 = CARTESIAN_POINT('',(-0.15,21.));
#1263 = CARTESIAN_POINT('',(1.65,21.));
#1264 = ( GEOMETRIC_REPRESENTATION_CONTEXT(2) 
PARAMETRIC_REPRESENTATION_CONTEXT() REPRESENTATION_CONTEXT('2D SPACE',''
  ) );
#1265 = ORIENTED_EDGE('',*,*,#1266,.F.);
#1266 = EDGE_CURVE('',#525,#1241,#1267,.T.);
#1267 = SURFACE_CURVE('',#1268,(#1283,#1301),.PCURVE_S1.);
#1268 = B_SPLINE_CURVE_WITH_KNOTS('',7,(#1269,#1270,#1271,#1272,#1273,
    #1274,#1275,#1276,#1277,#1278,#1279,#1280,#1281,#1282),
  .UNSPECIFIED.,.F.,.F.,(8,6,8),(0.,0.528331681807,1.),.UNSPECIFIED.);
#1269 = CARTESIAN_POINT('',(2.384848003542,0.75,-1.5));
#1270 = CARTESIAN_POINT('',(2.354706384907,0.8458442387,-1.5));
#1271 = CARTESIAN_POINT('',(2.32029295257,0.939568890403,-1.485710409547
    ));
#1272 = CARTESIAN_POINT('',(2.282414741882,1.029026521953,-1.45826937174
    ));
#1273 = CARTESIAN_POINT('',(2.242381480018,1.112419462064,
    -1.418981105804));
#1274 = CARTESIAN_POINT('',(2.201932217578,1.188220864823,
    -1.369345586223));
#1275 = CARTESIAN_POINT('',(2.163092821332,1.255218134338,
    -1.311051909561));
#1276 = CARTESIAN_POINT('',(2.09611095516,1.363796078573,-1.187894406786
    ));
#1277 = CARTESIAN_POINT('',(2.066847897263,1.408013508467,
    -1.123633038781));
#1278 = CARTESIAN_POINT('',(2.041368003696,1.44426056636,-1.054302760333
    ));
#1279 = CARTESIAN_POINT('',(2.021076838411,1.471896519294,
    -0.981134395449));
#1280 = CARTESIAN_POINT('',(2.007080224774,1.490559924827,
    -0.905305595176));
#1281 = CARTESIAN_POINT('',(2.,1.5,-0.827901496754));
#1282 = CARTESIAN_POINT('',(2.,1.5,-0.75));
#1283 = PCURVE('',#567,#1284);
#1284 = DEFINITIONAL_REPRESENTATION('',(#1285),#1300);
#1285 = B_SPLINE_CURVE_WITH_KNOTS('',7,(#1286,#1287,#1288,#1289,#1290,
    #1291,#1292,#1293,#1294,#1295,#1296,#1297,#1298,#1299),
  .UNSPECIFIED.,.F.,.F.,(8,6,8),(0.,0.528331681807,1.),.UNSPECIFIED.);
#1286 = CARTESIAN_POINT('',(0.304692654015,0.));
#1287 = CARTESIAN_POINT('',(0.344881478862,0.));
#1288 = CARTESIAN_POINT('',(0.384774145881,1.428959045273E-02));
#1289 = CARTESIAN_POINT('',(0.423560382171,4.173062826039E-02));
#1290 = CARTESIAN_POINT('',(0.460496129444,8.101889419576E-02));
#1291 = CARTESIAN_POINT('',(0.494828358315,0.130654413777));
#1292 = CARTESIAN_POINT('',(0.525793200161,0.188948090439));
#1293 = CARTESIAN_POINT('',(0.576823764133,0.312105593214));
#1294 = CARTESIAN_POINT('',(0.598022453651,0.376366961219));
#1295 = CARTESIAN_POINT('',(0.615736018582,0.445697239667));
#1296 = CARTESIAN_POINT('',(0.629449594366,0.518865604551));
#1297 = CARTESIAN_POINT('',(0.638781024025,0.594694404824));
#1298 = CARTESIAN_POINT('',(0.643501108793,0.672098503246));
#1299 = CARTESIAN_POINT('',(0.643501108793,0.75));
#1300 = ( GEOMETRIC_REPRESENTATION_CONTEXT(2) 
PARAMETRIC_REPRESENTATION_CONTEXT() REPRESENTATION_CONTEXT('2D SPACE',''
  ) );
#1301 = PCURVE('',#540,#1302);
#1302 = DEFINITIONAL_REPRESENTATION('',(#1303),#1318);
#1303 = B_SPLINE_CURVE_WITH_KNOTS('',7,(#1304,#1305,#1306,#1307,#1308,
    #1309,#1310,#1311,#1312,#1313,#1314,#1315,#1316,#1317),
  .UNSPECIFIED.,.F.,.F.,(8,6,8),(0.,0.528331681807,1.),.UNSPECIFIED.);
#1304 = CARTESIAN_POINT('',(3.14159265359,21.384848003542));
#1305 = CARTESIAN_POINT('',(3.269384971857,21.354706384907));
#1306 = CARTESIAN_POINT('',(3.394351424224,21.32029295257));
#1307 = CARTESIAN_POINT('',(3.517035604465,21.282414741882));
#1308 = CARTESIAN_POINT('',(3.63777780908,21.242381480018));
#1309 = CARTESIAN_POINT('',(3.756786383955,21.201932217578));
#1310 = CARTESIAN_POINT('',(3.874163335146,21.163092821332));
#1311 = CARTESIAN_POINT('',(4.093077587113,21.09611095516));
#1312 = CARTESIAN_POINT('',(4.196337185155,21.066847897263));
#1313 = CARTESIAN_POINT('',(4.299436424866,21.041368003696));
#1314 = CARTESIAN_POINT('',(4.402379199977,21.021076838411));
#1315 = CARTESIAN_POINT('',(4.505314916399,21.007080224774));
#1316 = CARTESIAN_POINT('',(4.608520318046,21.));
#1317 = CARTESIAN_POINT('',(4.712388980385,21.));
#1318 = ( GEOMETRIC_REPRESENTATION_CONTEXT(2) 
PARAMETRIC_REPRESENTATION_CONTEXT() REPRESENTATION_CONTEXT('2D SPACE',''
  ) );
#1319 = ORIENTED_EDGE('',*,*,#552,.T.);
#1320 = ORIENTED_EDGE('',*,*,#637,.T.);
#1321 = ORIENTED_EDGE('',*,*,#720,.T.);
#1322 = ORIENTED_EDGE('',*,*,#765,.T.);
#1323 = ADVANCED_FACE('',(#1324),#540,.T.);
#1324 = FACE_BOUND('',#1325,.T.);
#1325 = EDGE_LOOP('',(#1326,#1327,#1350,#1372));
#1326 = ORIENTED_EDGE('',*,*,#1266,.T.);
#1327 = ORIENTED_EDGE('',*,*,#1328,.T.);
#1328 = EDGE_CURVE('',#1241,#1329,#1331,.T.);
#1329 = VERTEX_POINT('',#1330);
#1330 = CARTESIAN_POINT('',(19.,1.5,-0.75));
#1331 = SURFACE_CURVE('',#1332,(#1336,#1343),.PCURVE_S1.);
#1332 = LINE('',#1333,#1334);
#1333 = CARTESIAN_POINT('',(-19.,1.5,-0.75));
#1334 = VECTOR('',#1335,1.);
#1335 = DIRECTION('',(1.,0.,-0.));
#1336 = PCURVE('',#540,#1337);
#1337 = DEFINITIONAL_REPRESENTATION('',(#1338),#1342);
#1338 = LINE('',#1339,#1340);
#1339 = CARTESIAN_POINT('',(4.712388980385,0.));
#1340 = VECTOR('',#1341,1.);
#1341 = DIRECTION('',(0.,1.));
#1342 = ( GEOMETRIC_REPRESENTATION_CONTEXT(2) 
PARAMETRIC_REPRESENTATION_CONTEXT() REPRESENTATION_CONTEXT('2D SPACE',''
  ) );
#1343 = PCURVE('',#1255,#1344);
#1344 = DEFINITIONAL_REPRESENTATION('',(#1345),#1349);
#1345 = LINE('',#1346,#1347);
#1346 = CARTESIAN_POINT('',(0.,0.));
#1347 = VECTOR('',#1348,1.);
#1348 = DIRECTION('',(0.,1.));
#1349 = ( GEOMETRIC_REPRESENTATION_CONTEXT(2) 
PARAMETRIC_REPRESENTATION_CONTEXT() REPRESENTATION_CONTEXT('2D SPACE',''
  ) );
#1350 = ORIENTED_EDGE('',*,*,#1351,.F.);
#1351 = EDGE_CURVE('',#497,#1329,#1352,.T.);
#1352 = SURFACE_CURVE('',#1353,(#1358,#1365),.PCURVE_S1.);
#1353 = CIRCLE('',#1354,0.75);
#1354 = AXIS2_PLACEMENT_3D('',#1355,#1356,#1357);
#1355 = CARTESIAN_POINT('',(19.,0.75,-0.75));
#1356 = DIRECTION('',(1.,0.,0.));
#1357 = DIRECTION('',(-0.,0.,1.));
#1358 = PCURVE('',#540,#1359);
#1359 = DEFINITIONAL_REPRESENTATION('',(#1360),#1364);
#1360 = LINE('',#1361,#1362);
#1361 = CARTESIAN_POINT('',(0.,38.));
#1362 = VECTOR('',#1363,1.);
#1363 = DIRECTION('',(1.,0.));
#1364 = ( GEOMETRIC_REPRESENTATION_CONTEXT(2) 
PARAMETRIC_REPRESENTATION_CONTEXT() REPRESENTATION_CONTEXT('2D SPACE',''
  ) );
#1365 = PCURVE('',#512,#1366);
#1366 = DEFINITIONAL_REPRESENTATION('',(#1367),#1371);
#1367 = CIRCLE('',#1368,0.75);
#1368 = AXIS2_PLACEMENT_2D('',#1369,#1370);
#1369 = CARTESIAN_POINT('',(-1.5,-1.5));
#1370 = DIRECTION('',(1.,0.));
#1371 = ( GEOMETRIC_REPRESENTATION_CONTEXT(2) 
PARAMETRIC_REPRESENTATION_CONTEXT() REPRESENTATION_CONTEXT('2D SPACE',''
  ) );
#1372 = ORIENTED_EDGE('',*,*,#524,.F.);
#1373 = ADVANCED_FACE('',(#1374),#512,.T.);
#1374 = FACE_BOUND('',#1375,.T.);
#1375 = EDGE_LOOP('',(#1376,#1400,#1423,#1445,#1446,#1447,#1470,#1492));
#1376 = ORIENTED_EDGE('',*,*,#1377,.T.);
#1377 = EDGE_CURVE('',#850,#1378,#1380,.T.);
#1378 = VERTEX_POINT('',#1379);
#1379 = CARTESIAN_POINT('',(19.,-1.5,0.75));
#1380 = SURFACE_CURVE('',#1381,(#1386,#1393),.PCURVE_S1.);
#1381 = CIRCLE('',#1382,0.75);
#1382 = AXIS2_PLACEMENT_3D('',#1383,#1384,#1385);
#1383 = CARTESIAN_POINT('',(19.,-0.75,0.75));
#1384 = DIRECTION('',(1.,0.,0.));
#1385 = DIRECTION('',(-0.,0.,1.));
#1386 = PCURVE('',#512,#1387);
#1387 = DEFINITIONAL_REPRESENTATION('',(#1388),#1392);
#1388 = CIRCLE('',#1389,0.75);
#1389 = AXIS2_PLACEMENT_2D('',#1390,#1391);
#1390 = CARTESIAN_POINT('',(0.,0.));
#1391 = DIRECTION('',(1.,0.));
#1392 = ( GEOMETRIC_REPRESENTATION_CONTEXT(2) 
PARAMETRIC_REPRESENTATION_CONTEXT() REPRESENTATION_CONTEXT('2D SPACE',''
  ) );
#1393 = PCURVE('',#865,#1394);
#1394 = DEFINITIONAL_REPRESENTATION('',(#1395),#1399);
#1395 = LINE('',#1396,#1397);
#1396 = CARTESIAN_POINT('',(0.,38.));
#1397 = VECTOR('',#1398,1.);
#1398 = DIRECTION('',(1.,0.));
#1399 = ( GEOMETRIC_REPRESENTATION_CONTEXT(2) 
PARAMETRIC_REPRESENTATION_CONTEXT() REPRESENTATION_CONTEXT('2D SPACE',''
  ) );
#1400 = ORIENTED_EDGE('',*,*,#1401,.F.);
#1401 = EDGE_CURVE('',#1402,#1378,#1404,.T.);
#1402 = VERTEX_POINT('',#1403);
#1403 = CARTESIAN_POINT('',(19.,-1.5,-0.75));
#1404 = SURFACE_CURVE('',#1405,(#1409,#1416),.PCURVE_S1.);
#1405 = LINE('',#1406,#1407);
#1406 = CARTESIAN_POINT('',(19.,-1.5,-0.75));
#1407 = VECTOR('',#1408,1.);
#1408 = DIRECTION('',(0.,0.,1.));
#1409 = PCURVE('',#512,#1410);
#1410 = DEFINITIONAL_REPRESENTATION('',(#1411),#1415);
#1411 = LINE('',#1412,#1413);
#1412 = CARTESIAN_POINT('',(-1.5,0.75));
#1413 = VECTOR('',#1414,1.);
#1414 = DIRECTION('',(1.,0.));
#1415 = ( GEOMETRIC_REPRESENTATION_CONTEXT(2) 
PARAMETRIC_REPRESENTATION_CONTEXT() REPRESENTATION_CONTEXT('2D SPACE',''
  ) );
#1416 = PCURVE('',#1169,#1417);
#1417 = DEFINITIONAL_REPRESENTATION('',(#1418),#1422);
#1418 = LINE('',#1419,#1420);
#1419 = CARTESIAN_POINT('',(0.,38.));
#1420 = VECTOR('',#1421,1.);
#1421 = DIRECTION('',(1.,0.));
#1422 = ( GEOMETRIC_REPRESENTATION_CONTEXT(2) 
PARAMETRIC_REPRESENTATION_CONTEXT() REPRESENTATION_CONTEXT('2D SPACE',''
  ) );
#1423 = ORIENTED_EDGE('',*,*,#1424,.T.);
#1424 = EDGE_CURVE('',#1402,#469,#1425,.T.);
#1425 = SURFACE_CURVE('',#1426,(#1431,#1438),.PCURVE_S1.);
#1426 = CIRCLE('',#1427,0.75);
#1427 = AXIS2_PLACEMENT_3D('',#1428,#1429,#1430);
#1428 = CARTESIAN_POINT('',(19.,-0.75,-0.75));
#1429 = DIRECTION('',(1.,0.,0.));
#1430 = DIRECTION('',(-0.,0.,1.));
#1431 = PCURVE('',#512,#1432);
#1432 = DEFINITIONAL_REPRESENTATION('',(#1433),#1437);
#1433 = CIRCLE('',#1434,0.75);
#1434 = AXIS2_PLACEMENT_2D('',#1435,#1436);
#1435 = CARTESIAN_POINT('',(-1.5,0.));
#1436 = DIRECTION('',(1.,0.));
#1437 = ( GEOMETRIC_REPRESENTATION_CONTEXT(2) 
PARAMETRIC_REPRESENTATION_CONTEXT() REPRESENTATION_CONTEXT('2D SPACE',''
  ) );
#1438 = PCURVE('',#484,#1439);
#1439 = DEFINITIONAL_REPRESENTATION('',(#1440),#1444);
#1440 = LINE('',#1441,#1442);
#1441 = CARTESIAN_POINT('',(0.,38.));
#1442 = VECTOR('',#1443,1.);
#1443 = DIRECTION('',(1.,0.));
#1444 = ( GEOMETRIC_REPRESENTATION_CONTEXT(2) 
PARAMETRIC_REPRESENTATION_CONTEXT() REPRESENTATION_CONTEXT('2D SPACE',''
  ) );
#1445 = ORIENTED_EDGE('',*,*,#496,.T.);
#1446 = ORIENTED_EDGE('',*,*,#1351,.T.);
#1447 = ORIENTED_EDGE('',*,*,#1448,.T.);
#1448 = EDGE_CURVE('',#1329,#1449,#1451,.T.);
#1449 = VERTEX_POINT('',#1450);
#1450 = CARTESIAN_POINT('',(19.,1.5,0.75));
#1451 = SURFACE_CURVE('',#1452,(#1456,#1463),.PCURVE_S1.);
#1452 = LINE('',#1453,#1454);
#1453 = CARTESIAN_POINT('',(19.,1.5,-0.75));
#1454 = VECTOR('',#1455,1.);
#1455 = DIRECTION('',(0.,0.,1.));
#1456 = PCURVE('',#512,#1457);
#1457 = DEFINITIONAL_REPRESENTATION('',(#1458),#1462);
#1458 = LINE('',#1459,#1460);
#1459 = CARTESIAN_POINT('',(-1.5,-2.25));
#1460 = VECTOR('',#1461,1.);
#1461 = DIRECTION('',(1.,0.));
#1462 = ( GEOMETRIC_REPRESENTATION_CONTEXT(2) 
PARAMETRIC_REPRESENTATION_CONTEXT() REPRESENTATION_CONTEXT('2D SPACE',''
  ) );
#1463 = PCURVE('',#1255,#1464);
#1464 = DEFINITIONAL_REPRESENTATION('',(#1465),#1469);
#1465 = LINE('',#1466,#1467);
#1466 = CARTESIAN_POINT('',(0.,38.));
#1467 = VECTOR('',#1468,1.);
#1468 = DIRECTION('',(1.,0.));
#1469 = ( GEOMETRIC_REPRESENTATION_CONTEXT(2) 
PARAMETRIC_REPRESENTATION_CONTEXT() REPRESENTATION_CONTEXT('2D SPACE',''
  ) );
#1470 = ORIENTED_EDGE('',*,*,#1471,.T.);
#1471 = EDGE_CURVE('',#1449,#877,#1472,.T.);
#1472 = SURFACE_CURVE('',#1473,(#1478,#1485),.PCURVE_S1.);
#1473 = CIRCLE('',#1474,0.75);
#1474 = AXIS2_PLACEMENT_3D('',#1475,#1476,#1477);
#1475 = CARTESIAN_POINT('',(19.,0.75,0.75));
#1476 = DIRECTION('',(1.,0.,0.));
#1477 = DIRECTION('',(-0.,0.,1.));
#1478 = PCURVE('',#512,#1479);
#1479 = DEFINITIONAL_REPRESENTATION('',(#1480),#1484);
#1480 = CIRCLE('',#1481,0.75);
#1481 = AXIS2_PLACEMENT_2D('',#1482,#1483);
#1482 = CARTESIAN_POINT('',(0.,-1.5));
#1483 = DIRECTION('',(1.,0.));
#1484 = ( GEOMETRIC_REPRESENTATION_CONTEXT(2) 
PARAMETRIC_REPRESENTATION_CONTEXT() REPRESENTATION_CONTEXT('2D SPACE',''
  ) );
#1485 = PCURVE('',#915,#1486);
#1486 = DEFINITIONAL_REPRESENTATION('',(#1487),#1491);
#1487 = LINE('',#1488,#1489);
#1488 = CARTESIAN_POINT('',(0.,38.));
#1489 = VECTOR('',#1490,1.);
#1490 = DIRECTION('',(1.,0.));
#1491 = ( GEOMETRIC_REPRESENTATION_CONTEXT(2) 
PARAMETRIC_REPRESENTATION_CONTEXT() REPRESENTATION_CONTEXT('2D SPACE',''
  ) );
#1492 = ORIENTED_EDGE('',*,*,#876,.F.);
#1493 = ADVANCED_FACE('',(#1494),#484,.T.);
#1494 = FACE_BOUND('',#1495,.T.);
#1495 = EDGE_LOOP('',(#1496,#1497,#1518,#1519));
#1496 = ORIENTED_EDGE('',*,*,#1424,.F.);
#1497 = ORIENTED_EDGE('',*,*,#1498,.F.);
#1498 = EDGE_CURVE('',#1095,#1402,#1499,.T.);
#1499 = SURFACE_CURVE('',#1500,(#1504,#1511),.PCURVE_S1.);
#1500 = LINE('',#1501,#1502);
#1501 = CARTESIAN_POINT('',(-19.,-1.5,-0.75));
#1502 = VECTOR('',#1503,1.);
#1503 = DIRECTION('',(1.,0.,-0.));
#1504 = PCURVE('',#484,#1505);
#1505 = DEFINITIONAL_REPRESENTATION('',(#1506),#1510);
#1506 = LINE('',#1507,#1508);
#1507 = CARTESIAN_POINT('',(1.570796326795,0.));
#1508 = VECTOR('',#1509,1.);
#1509 = DIRECTION('',(0.,1.));
#1510 = ( GEOMETRIC_REPRESENTATION_CONTEXT(2) 
PARAMETRIC_REPRESENTATION_CONTEXT() REPRESENTATION_CONTEXT('2D SPACE',''
  ) );
#1511 = PCURVE('',#1169,#1512);
#1512 = DEFINITIONAL_REPRESENTATION('',(#1513),#1517);
#1513 = LINE('',#1514,#1515);
#1514 = CARTESIAN_POINT('',(0.,0.));
#1515 = VECTOR('',#1516,1.);
#1516 = DIRECTION('',(0.,1.));
#1517 = ( GEOMETRIC_REPRESENTATION_CONTEXT(2) 
PARAMETRIC_REPRESENTATION_CONTEXT() REPRESENTATION_CONTEXT('2D SPACE',''
  ) );
#1518 = ORIENTED_EDGE('',*,*,#1094,.T.);
#1519 = ORIENTED_EDGE('',*,*,#468,.T.);
#1520 = ADVANCED_FACE('',(#1521),#598,.F.);
#1521 = FACE_BOUND('',#1522,.F.);
#1522 = EDGE_LOOP('',(#1523,#1546,#1572,#1573));
#1523 = ORIENTED_EDGE('',*,*,#1524,.T.);
#1524 = EDGE_CURVE('',#582,#1525,#1527,.T.);
#1525 = VERTEX_POINT('',#1526);
#1526 = CARTESIAN_POINT('',(1.6,-3.918869757272E-16,-0.9));
#1527 = SEAM_CURVE('',#1528,(#1532,#1539),.PCURVE_S1.);
#1528 = LINE('',#1529,#1530);
#1529 = CARTESIAN_POINT('',(1.6,-3.918869757272E-16,-1.6));
#1530 = VECTOR('',#1531,1.);
#1531 = DIRECTION('',(0.,0.,1.));
#1532 = PCURVE('',#598,#1533);
#1533 = DEFINITIONAL_REPRESENTATION('',(#1534),#1538);
#1534 = LINE('',#1535,#1536);
#1535 = CARTESIAN_POINT('',(6.28318530718,-0.));
#1536 = VECTOR('',#1537,1.);
#1537 = DIRECTION('',(0.,1.));
#1538 = ( GEOMETRIC_REPRESENTATION_CONTEXT(2) 
PARAMETRIC_REPRESENTATION_CONTEXT() REPRESENTATION_CONTEXT('2D SPACE',''
  ) );
#1539 = PCURVE('',#598,#1540);
#1540 = DEFINITIONAL_REPRESENTATION('',(#1541),#1545);
#1541 = LINE('',#1542,#1543);
#1542 = CARTESIAN_POINT('',(0.,-0.));
#1543 = VECTOR('',#1544,1.);
#1544 = DIRECTION('',(0.,1.));
#1545 = ( GEOMETRIC_REPRESENTATION_CONTEXT(2) 
PARAMETRIC_REPRESENTATION_CONTEXT() REPRESENTATION_CONTEXT('2D SPACE',''
  ) );
#1546 = ORIENTED_EDGE('',*,*,#1547,.F.);
#1547 = EDGE_CURVE('',#1525,#1525,#1548,.T.);
#1548 = SURFACE_CURVE('',#1549,(#1554,#1561),.PCURVE_S1.);
#1549 = CIRCLE('',#1550,1.6);
#1550 = AXIS2_PLACEMENT_3D('',#1551,#1552,#1553);
#1551 = CARTESIAN_POINT('',(0.,0.,-0.9));
#1552 = DIRECTION('',(0.,0.,1.));
#1553 = DIRECTION('',(1.,0.,-0.));
#1554 = PCURVE('',#598,#1555);
#1555 = DEFINITIONAL_REPRESENTATION('',(#1556),#1560);
#1556 = LINE('',#1557,#1558);
#1557 = CARTESIAN_POINT('',(0.,0.7));
#1558 = VECTOR('',#1559,1.);
#1559 = DIRECTION('',(1.,0.));
#1560 = ( GEOMETRIC_REPRESENTATION_CONTEXT(2) 
PARAMETRIC_REPRESENTATION_CONTEXT() REPRESENTATION_CONTEXT('2D SPACE',''
  ) );
#1561 = PCURVE('',#1562,#1567);
#1562 = SPHERICAL_SURFACE('',#1563,1.6);
#1563 = AXIS2_PLACEMENT_3D('',#1564,#1565,#1566);
#1564 = CARTESIAN_POINT('',(0.,0.,-0.9));
#1565 = DIRECTION('',(0.,0.,1.));
#1566 = DIRECTION('',(1.,0.,-0.));
#1567 = DEFINITIONAL_REPRESENTATION('',(#1568),#1571);
#1568 = B_SPLINE_CURVE_WITH_KNOTS('',1,(#1569,#1570),.UNSPECIFIED.,.F.,
  .F.,(2,2),(0.,6.28318530718),.PIECEWISE_BEZIER_KNOTS.);
#1569 = CARTESIAN_POINT('',(0.,0.));
#1570 = CARTESIAN_POINT('',(6.28318530718,0.));
#1571 = ( GEOMETRIC_REPRESENTATION_CONTEXT(2) 
PARAMETRIC_REPRESENTATION_CONTEXT() REPRESENTATION_CONTEXT('2D SPACE',''
  ) );
#1572 = ORIENTED_EDGE('',*,*,#1524,.F.);
#1573 = ORIENTED_EDGE('',*,*,#581,.T.);
#1574 = ADVANCED_FACE('',(#1575),#865,.T.);
#1575 = FACE_BOUND('',#1576,.T.);
#1576 = EDGE_LOOP('',(#1577,#1578,#1579,#1580));
#1577 = ORIENTED_EDGE('',*,*,#1377,.F.);
#1578 = ORIENTED_EDGE('',*,*,#849,.F.);
#1579 = ORIENTED_EDGE('',*,*,#1033,.T.);
#1580 = ORIENTED_EDGE('',*,*,#1581,.T.);
#1581 = EDGE_CURVE('',#1034,#1378,#1582,.T.);
#1582 = SURFACE_CURVE('',#1583,(#1587,#1594),.PCURVE_S1.);
#1583 = LINE('',#1584,#1585);
#1584 = CARTESIAN_POINT('',(-19.,-1.5,0.75));
#1585 = VECTOR('',#1586,1.);
#1586 = DIRECTION('',(1.,0.,-0.));
#1587 = PCURVE('',#865,#1588);
#1588 = DEFINITIONAL_REPRESENTATION('',(#1589),#1593);
#1589 = LINE('',#1590,#1591);
#1590 = CARTESIAN_POINT('',(1.570796326795,0.));
#1591 = VECTOR('',#1592,1.);
#1592 = DIRECTION('',(0.,1.));
#1593 = ( GEOMETRIC_REPRESENTATION_CONTEXT(2) 
PARAMETRIC_REPRESENTATION_CONTEXT() REPRESENTATION_CONTEXT('2D SPACE',''
  ) );
#1594 = PCURVE('',#1169,#1595);
#1595 = DEFINITIONAL_REPRESENTATION('',(#1596),#1600);
#1596 = LINE('',#1597,#1598);
#1597 = CARTESIAN_POINT('',(1.5,0.));
#1598 = VECTOR('',#1599,1.);
#1599 = DIRECTION('',(0.,1.));
#1600 = ( GEOMETRIC_REPRESENTATION_CONTEXT(2) 
PARAMETRIC_REPRESENTATION_CONTEXT() REPRESENTATION_CONTEXT('2D SPACE',''
  ) );
#1601 = ADVANCED_FACE('',(#1602),#915,.T.);
#1602 = FACE_BOUND('',#1603,.T.);
#1603 = EDGE_LOOP('',(#1604,#1605,#1606,#1607));
#1604 = ORIENTED_EDGE('',*,*,#1184,.T.);
#1605 = ORIENTED_EDGE('',*,*,#899,.T.);
#1606 = ORIENTED_EDGE('',*,*,#1471,.F.);
#1607 = ORIENTED_EDGE('',*,*,#1608,.F.);
#1608 = EDGE_CURVE('',#1185,#1449,#1609,.T.);
#1609 = SURFACE_CURVE('',#1610,(#1614,#1621),.PCURVE_S1.);
#1610 = LINE('',#1611,#1612);
#1611 = CARTESIAN_POINT('',(-19.,1.5,0.75));
#1612 = VECTOR('',#1613,1.);
#1613 = DIRECTION('',(1.,0.,-0.));
#1614 = PCURVE('',#915,#1615);
#1615 = DEFINITIONAL_REPRESENTATION('',(#1616),#1620);
#1616 = LINE('',#1617,#1618);
#1617 = CARTESIAN_POINT('',(4.712388980385,0.));
#1618 = VECTOR('',#1619,1.);
#1619 = DIRECTION('',(0.,1.));
#1620 = ( GEOMETRIC_REPRESENTATION_CONTEXT(2) 
PARAMETRIC_REPRESENTATION_CONTEXT() REPRESENTATION_CONTEXT('2D SPACE',''
  ) );
#1621 = PCURVE('',#1255,#1622);
#1622 = DEFINITIONAL_REPRESENTATION('',(#1623),#1627);
#1623 = LINE('',#1624,#1625);
#1624 = CARTESIAN_POINT('',(1.5,0.));
#1625 = VECTOR('',#1626,1.);
#1626 = DIRECTION('',(0.,1.));
#1627 = ( GEOMETRIC_REPRESENTATION_CONTEXT(2) 
PARAMETRIC_REPRESENTATION_CONTEXT() REPRESENTATION_CONTEXT('2D SPACE',''
  ) );
#1628 = ADVANCED_FACE('',(#1629),#1169,.F.);
#1629 = FACE_BOUND('',#1630,.F.);
#1630 = EDGE_LOOP('',(#1631,#1632,#1633,#1634));
#1631 = ORIENTED_EDGE('',*,*,#1498,.F.);
#1632 = ORIENTED_EDGE('',*,*,#1156,.T.);
#1633 = ORIENTED_EDGE('',*,*,#1581,.T.);
#1634 = ORIENTED_EDGE('',*,*,#1401,.F.);
#1635 = ADVANCED_FACE('',(#1636),#1255,.T.);
#1636 = FACE_BOUND('',#1637,.T.);
#1637 = EDGE_LOOP('',(#1638,#1639,#1640,#1641));
#1638 = ORIENTED_EDGE('',*,*,#1328,.F.);
#1639 = ORIENTED_EDGE('',*,*,#1240,.T.);
#1640 = ORIENTED_EDGE('',*,*,#1608,.T.);
#1641 = ORIENTED_EDGE('',*,*,#1448,.F.);
#1642 = ADVANCED_FACE('',(#1643),#1562,.F.);
#1643 = FACE_BOUND('',#1644,.F.);
#1644 = EDGE_LOOP('',(#1645,#1669,#1670));
#1645 = ORIENTED_EDGE('',*,*,#1646,.F.);
#1646 = EDGE_CURVE('',#1525,#1647,#1649,.T.);
#1647 = VERTEX_POINT('',#1648);
#1648 = CARTESIAN_POINT('',(9.797174393179E-17,-2.399615652259E-32,0.7)
  );
#1649 = SEAM_CURVE('',#1650,(#1655,#1662),.PCURVE_S1.);
#1650 = CIRCLE('',#1651,1.6);
#1651 = AXIS2_PLACEMENT_3D('',#1652,#1653,#1654);
#1652 = CARTESIAN_POINT('',(0.,0.,-0.9));
#1653 = DIRECTION('',(-2.449293598295E-16,-1.,0.));
#1654 = DIRECTION('',(1.,-2.449293598295E-16,0.));
#1655 = PCURVE('',#1562,#1656);
#1656 = DEFINITIONAL_REPRESENTATION('',(#1657),#1661);
#1657 = LINE('',#1658,#1659);
#1658 = CARTESIAN_POINT('',(6.28318530718,-6.28318530718));
#1659 = VECTOR('',#1660,1.);
#1660 = DIRECTION('',(0.,1.));
#1661 = ( GEOMETRIC_REPRESENTATION_CONTEXT(2) 
PARAMETRIC_REPRESENTATION_CONTEXT() REPRESENTATION_CONTEXT('2D SPACE',''
  ) );
#1662 = PCURVE('',#1562,#1663);
#1663 = DEFINITIONAL_REPRESENTATION('',(#1664),#1668);
#1664 = LINE('',#1665,#1666);
#1665 = CARTESIAN_POINT('',(0.,-6.28318530718));
#1666 = VECTOR('',#1667,1.);
#1667 = DIRECTION('',(0.,1.));
#1668 = ( GEOMETRIC_REPRESENTATION_CONTEXT(2) 
PARAMETRIC_REPRESENTATION_CONTEXT() REPRESENTATION_CONTEXT('2D SPACE',''
  ) );
#1669 = ORIENTED_EDGE('',*,*,#1547,.T.);
#1670 = ORIENTED_EDGE('',*,*,#1646,.T.);
#1671 = ( GEOMETRIC_REPRESENTATION_CONTEXT(3) 
GLOBAL_UNCERTAINTY_ASSIGNED_CONTEXT((#1675)) 
GLOBAL_UNIT_ASSIGNED_CONTEXT((#1672,#1673,#1674)) REPRESENTATION_CONTEXT
('Context #1','3D Context with UNIT and UNCERTAINTY') );
#1672 = ( LENGTH_UNIT() NAMED_UNIT(*) SI_UNIT(.MILLI.,.METRE.) );
#1673 = ( NAMED_UNIT(*) PLANE_ANGLE_UNIT() SI_UNIT($,.RADIAN.) );
#1674 = ( NAMED_UNIT(*) SI_UNIT($,.STERADIAN.) SOLID_ANGLE_UNIT() );
#1675 = UNCERTAINTY_MEASURE_WITH_UNIT(LENGTH_MEASURE(1.E-07),#1672,
  'distance_accuracy_value','confusion accuracy');
#1676 = PRODUCT_RELATED_PRODUCT_CATEGORY('part',$,(#7));
ENDSEC;
END-ISO-10303-21;
